<svg id="Слой_1" data-name="Слой 1" xmlns="http://www.w3.org/2000/svg" viewBox="0 0 166.53 42.63">
  <defs>
    <style>
      .cls-1 {
        fill: #121212;
      }
    </style>
  </defs>
  <title>01_daphne</title>
  <g>
    <path class="cls-1" d="M224.75,264.52a2.1,2.1,0,0,1,.59,1.55v19.15a11.71,11.71,0,0,1-1.53,5.94,11.33,11.33,0,0,1-10,5.73,11.61,11.61,0,0,1-5.9-1.53,11,11,0,0,1-4.18-4.2,11.83,11.83,0,0,1-1.51-5.94,12.54,12.54,0,0,1,1.41-5.94,10.6,10.6,0,0,1,3.86-4.18,10.48,10.48,0,0,1,13.59,2.31V266.07a2.06,2.06,0,0,1,.61-1.55A2.32,2.32,0,0,1,224.75,264.52Zm-7.16,27.57a7.23,7.23,0,0,0,2.67-2.83,8.42,8.42,0,0,0,1-4,8.3,8.3,0,0,0-1-4,7.22,7.22,0,0,0-6.47-3.84,7.2,7.2,0,0,0-3.8,1,7.42,7.42,0,0,0-2.69,2.81,8.15,8.15,0,0,0-1,4,8.27,8.27,0,0,0,1,4,7.38,7.38,0,0,0,2.69,2.83A7.53,7.53,0,0,0,217.59,292.09Z" transform="translate(-202.2 -263.93)"/>
    <path class="cls-1" d="M249.17,275.12a11.3,11.3,0,0,1,4.16,4.2,11.71,11.71,0,0,1,1.53,5.94v9.37a2.14,2.14,0,1,1-4.28,0v-1.55A10.58,10.58,0,0,1,237,295.38a10.6,10.6,0,0,1-3.86-4.18,12.53,12.53,0,0,1-1.41-5.94,11.84,11.84,0,0,1,1.51-5.94,11,11,0,0,1,4.18-4.2,11.63,11.63,0,0,1,5.9-1.53A11.41,11.41,0,0,1,249.17,275.12Zm-2.06,17a7.26,7.26,0,0,0,2.67-2.81,8.29,8.29,0,0,0,1-4,8.42,8.42,0,0,0-1-4,7.41,7.41,0,0,0-10.27-2.83,7.39,7.39,0,0,0-2.69,2.83,8.27,8.27,0,0,0-1,4,8.14,8.14,0,0,0,1,4,7.41,7.41,0,0,0,2.69,2.81A7.53,7.53,0,0,0,247.12,292.09Z" transform="translate(-202.2 -263.93)"/>
    <path class="cls-1" d="M278.7,275.12a11.05,11.05,0,0,1,4.18,4.2,11.84,11.84,0,0,1,1.51,5.94,12.54,12.54,0,0,1-1.41,5.94,10.61,10.61,0,0,1-3.86,4.18,10.48,10.48,0,0,1-13.59-2.31v11.34a2.18,2.18,0,0,1-3.67,1.55,2.06,2.06,0,0,1-.61-1.55V285.26a11.71,11.71,0,0,1,1.53-5.94,11.33,11.33,0,0,1,10-5.73A11.63,11.63,0,0,1,278.7,275.12Zm-2.1,17a7.41,7.41,0,0,0,2.69-2.81,8.14,8.14,0,0,0,1-4,8.27,8.27,0,0,0-1-4,7.39,7.39,0,0,0-2.69-2.83,7.31,7.31,0,0,0-10.27,2.83,8.41,8.41,0,0,0-1,4,8.28,8.28,0,0,0,1,4A7.42,7.42,0,0,0,276.6,292.09Z" transform="translate(-202.2 -263.93)"/>
    <path class="cls-1" d="M307.41,274.81a8.88,8.88,0,0,1,3.61,3.67,12.1,12.1,0,0,1,1.3,5.82v10.33a2.14,2.14,0,1,1-4.28,0V284.3a6.2,6.2,0,0,0-6.68-6.89,7.17,7.17,0,0,0-3.21.71,5.71,5.71,0,0,0-2.27,1.93,4.79,4.79,0,0,0-.82,2.73v11.84a2.12,2.12,0,0,1-.59,1.53,2.15,2.15,0,0,1-3.7-1.53V266.07a2.06,2.06,0,0,1,.61-1.55,2.13,2.13,0,0,1,3.67,1.55v10.29a9.34,9.34,0,0,1,3.19-2.08A11.21,11.21,0,0,1,307.41,274.81Z" transform="translate(-202.2 -263.93)"/>
    <path class="cls-1" d="M336.09,274.81a8.89,8.89,0,0,1,3.61,3.67,12.11,12.11,0,0,1,1.3,5.82v10.33a2.14,2.14,0,1,1-4.28,0V284.3a6.2,6.2,0,0,0-6.68-6.89,7.17,7.17,0,0,0-3.21.71,5.7,5.7,0,0,0-2.27,1.93,4.78,4.78,0,0,0-.82,2.73v11.84a2.12,2.12,0,0,1-.59,1.53,2.15,2.15,0,0,1-3.7-1.53V275.9a2.06,2.06,0,0,1,.61-1.55,2.13,2.13,0,0,1,3.67,1.55v0.46a9.35,9.35,0,0,1,3.19-2.08A11.21,11.21,0,0,1,336.09,274.81Z" transform="translate(-202.2 -263.93)"/>
    <path class="cls-1" d="M368.18,286.21a1.92,1.92,0,0,1-1.39.52h-16a7.4,7.4,0,0,0,2.67,4.75,8.53,8.53,0,0,0,8,1.34,7.85,7.85,0,0,0,2.25-1.13,2.17,2.17,0,0,1,1.38-.46,1.81,1.81,0,0,1,1.26.42,1.84,1.84,0,0,1,.76,1.43,1.52,1.52,0,0,1-.67,1.26,11.62,11.62,0,0,1-3.55,1.85,12.84,12.84,0,0,1-10.23-.78,10.83,10.83,0,0,1-4.26-4.14,11.77,11.77,0,0,1-1.53-6,12.44,12.44,0,0,1,1.45-6,10.48,10.48,0,0,1,4-4.16,11.5,11.5,0,0,1,5.86-1.49,10.57,10.57,0,0,1,5.59,1.43,9.43,9.43,0,0,1,3.61,4,13.16,13.16,0,0,1,1.26,5.88A1.76,1.76,0,0,1,368.18,286.21Zm-14.89-7.33a7.55,7.55,0,0,0-2.41,4.49h14a7.45,7.45,0,0,0-2.1-4.49,6.16,6.16,0,0,0-4.49-1.68A7.27,7.27,0,0,0,353.29,278.88Z" transform="translate(-202.2 -263.93)"/>
  </g>
</svg>
