<svg id="Слой_1" data-name="Слой 1" xmlns="http://www.w3.org/2000/svg" viewBox="0 0 76.03 62.22">
  <title>02_iconnika</title>
  <g>
    <path d="M214.58,239.89a3.37,3.37,0,0,1,0,4.46,2.92,2.92,0,0,1-2.18.86,2.84,2.84,0,0,1-2.14-.88,3.34,3.34,0,0,1,0-4.45,2.87,2.87,0,0,1,2.14-.86A2.92,2.92,0,0,1,214.58,239.89Zm-4.91,7.74h5.54V267h-5.54V247.63Z" transform="translate(-209.41 -239.03)"/>
    <path d="M230,252.17a4.42,4.42,0,0,0-3.4,1.42,5.32,5.32,0,0,0-1.31,3.76,5.5,5.5,0,0,0,1.3,3.8,4.23,4.23,0,0,0,3.31,1.46,5,5,0,0,0,4.5-2.27l3.82,2.59a8.21,8.21,0,0,1-3.44,3.17,11.33,11.33,0,0,1-5.17,1.12A10.53,10.53,0,0,1,224.5,266a8.67,8.67,0,0,1-3.47-3.46,10.41,10.41,0,0,1-1.24-5.15,10.59,10.59,0,0,1,1.24-5.2,8.73,8.73,0,0,1,3.49-3.49,10.59,10.59,0,0,1,5.2-1.24,11,11,0,0,1,4.93,1.06,8.67,8.67,0,0,1,3.46,3l-3.74,2.7A5.29,5.29,0,0,0,230,252.17Z" transform="translate(-209.41 -239.03)"/>
    <path d="M256.16,248.68a8.84,8.84,0,0,1,3.65,3.46,11,11,0,0,1,0,10.35,8.91,8.91,0,0,1-3.65,3.49,12.52,12.52,0,0,1-10.87,0,8.91,8.91,0,0,1-3.65-3.49,11,11,0,0,1,0-10.35,8.83,8.83,0,0,1,3.65-3.46A12.69,12.69,0,0,1,256.16,248.68Zm-8.93,4.86a6.17,6.17,0,0,0,0,7.7,4.87,4.87,0,0,0,7,0,6.17,6.17,0,0,0,0-7.7A4.87,4.87,0,0,0,247.23,253.54Z" transform="translate(-209.41 -239.03)"/>
    <path d="M283.08,249.43a7.49,7.49,0,0,1,1.93,5.4V267h-5.54V256.45a4,4,0,0,0-1-2.9,3.7,3.7,0,0,0-2.79-1.06,4.15,4.15,0,0,0-3.24,1.42,5.26,5.26,0,0,0-1.19,3.55V267h-5.54V247.63h5.54V251q2-3.53,6.7-3.6A6.81,6.81,0,0,1,283.08,249.43Z" transform="translate(-209.41 -239.03)"/>
    <path d="M227.07,283.43a7.49,7.49,0,0,1,1.93,5.4V301h-5.54V290.45a4,4,0,0,0-1-2.9,3.7,3.7,0,0,0-2.79-1.06,4.15,4.15,0,0,0-3.24,1.42,5.25,5.25,0,0,0-1.19,3.55V301h-5.54V281.63h5.54V285q2-3.53,6.7-3.6A6.81,6.81,0,0,1,227.07,283.43Z" transform="translate(-209.41 -239.03)"/>
    <path d="M239.6,273.89a3.37,3.37,0,0,1,0,4.46,2.92,2.92,0,0,1-2.18.86,2.84,2.84,0,0,1-2.14-.88,3.34,3.34,0,0,1,0-4.45,2.87,2.87,0,0,1,2.14-.86A2.92,2.92,0,0,1,239.6,273.89Zm-4.91,7.74h5.54V301h-5.54V281.63Z" transform="translate(-209.41 -239.03)"/>
    <path d="M259.34,301l-4.68-7.88-2.48,2.63V301h-5.54V274.29h5.54V289l7.09-7.31h6.3l-7.09,7.45L265.9,301h-6.55Z" transform="translate(-209.41 -239.03)"/>
    <path d="M280,301v-2.27a6.21,6.21,0,0,1-2.52,1.87,9.16,9.16,0,0,1-3.56.65,6.85,6.85,0,0,1-4.86-1.67,5.69,5.69,0,0,1-1.8-4.37,5.14,5.14,0,0,1,1.93-4.27,8.72,8.72,0,0,1,5.45-1.57H280V289a2.93,2.93,0,0,0-1-2.39,4.63,4.63,0,0,0-3-.85,12,12,0,0,0-5.76,1.69l-1.73-3.82a23.14,23.14,0,0,1,4.32-1.69,17.09,17.09,0,0,1,4.43-.54,9,9,0,0,1,6,1.84,6.48,6.48,0,0,1,2.18,5.11l0,12.64H280Zm-1.55-4.54a3.23,3.23,0,0,0,1.51-2.09v-1.73h-4.36a4.35,4.35,0,0,0-2.39.52,1.87,1.87,0,0,0-.77,1.67,2.19,2.19,0,0,0,.81,1.78,3.38,3.38,0,0,0,2.21.67A5.31,5.31,0,0,0,278.46,296.46Z" transform="translate(-209.41 -239.03)"/>
  </g>
</svg>
