<svg id="Слой_1" data-name="Слой 1" xmlns="http://www.w3.org/2000/svg" viewBox="0 0 175.55 46">
  <title>02_carmina</title>
  <g>
    <path d="M228.5,303.58a8.5,8.5,0,0,1-4.42-1.17,10.57,10.57,0,0,1-3.37-3.22,15.23,15.23,0,0,1-2.1-4.81,20.94,20.94,0,0,1-.61-5.88,40.85,40.85,0,0,1,.76-6.35,47.33,47.33,0,0,1,1.88-6.86,46.55,46.55,0,0,1,3-6.64,27.94,27.94,0,0,1,4-5.64,19.3,19.3,0,0,1,5-3.93,12.35,12.35,0,0,1,6-1.49,6.67,6.67,0,0,1,3.39.81,6.54,6.54,0,0,1,2.25,2.12,8.63,8.63,0,0,1,1.2,3,14.62,14.62,0,0,1,.29,3.37,17.88,17.88,0,0,1-.46,3.13,10.9,10.9,0,0,1-1,2.71,5.82,5.82,0,0,1-1.61,1.9,3.55,3.55,0,0,1-2.17.71,2.44,2.44,0,0,1-1.12-.39,4.34,4.34,0,0,1-1-.88,5.85,5.85,0,0,1-1-1.71,4.14,4.14,0,0,0,2.08-1.88,12,12,0,0,0,1.15-2.81,20.14,20.14,0,0,0,.59-3.71,3.74,3.74,0,0,0-.83-2.93,2.9,2.9,0,0,0-2.1-.93q-2.3,0-4.83,2.39a24.9,24.9,0,0,0-4.71,6.47,46.23,46.23,0,0,0-3.66,9.5,50.91,50.91,0,0,0-1.73,11.47,17.25,17.25,0,0,0,.37,4.64,9.23,9.23,0,0,0,1.32,3.13,5.28,5.28,0,0,0,1.93,1.76A4.77,4.77,0,0,0,229,300a7.3,7.3,0,0,0,3.22-.73,12.63,12.63,0,0,0,2.76-1.81,16.2,16.2,0,0,0,2.15-2.22,15.79,15.79,0,0,0,1.39-2,1.56,1.56,0,0,1,.73-0.78,0.68,0.68,0,0,1,.68.07,1.1,1.1,0,0,1,.39.68,1.78,1.78,0,0,1-.2,1.1,24.33,24.33,0,0,1-2,3.32,19,19,0,0,1-2.69,3,13.37,13.37,0,0,1-3.25,2.17A8.6,8.6,0,0,1,228.5,303.58Z" transform="translate(-217.99 -257.59)"/>
    <path d="M271.74,284.78q-0.68,1-1.76,2.42t-2.22,2.88q-1.15,1.44-2.25,2.64a11.08,11.08,0,0,1-1.83,1.68,5.12,5.12,0,0,1-1.12.49,5.92,5.92,0,0,1-1.29.24,4.49,4.49,0,0,1-1.25-.07,2.9,2.9,0,0,1-1-.42,2.56,2.56,0,0,1-.73-1,8.43,8.43,0,0,1-.46-1.42,8,8,0,0,1-.17-2.2,10.18,10.18,0,0,1-2.59,3,11.54,11.54,0,0,1-2.69,1.54,10.55,10.55,0,0,1-2.93.63,2.9,2.9,0,0,1-1.46-.46,3.64,3.64,0,0,1-1.32-1.46,6.81,6.81,0,0,1-.68-2.59,11.71,11.71,0,0,1,.39-3.78,18.1,18.1,0,0,1,2.17-5.42,21.68,21.68,0,0,1,3.25-4.17,14.45,14.45,0,0,1,3.47-2.61,5.49,5.49,0,0,1,2.83-.78,5.94,5.94,0,0,1,2.15.78,2.34,2.34,0,0,1,.9,1.44,3.51,3.51,0,0,1-.81,2.51,11.32,11.32,0,0,1,1.15-.2q0.46,0,.71,0a1,1,0,0,1,.39,0,1.12,1.12,0,0,1,0,.42,7.89,7.89,0,0,1-.15,1.15q-0.15.83-.44,2.25T261.24,286q-0.1.44-.17,0.81l-0.15.73-0.17.85-0.24,1.22a6,6,0,0,0,0,1,3.52,3.52,0,0,0,.17,1,1.54,1.54,0,0,0,.46.71,1.36,1.36,0,0,0,.9.27,2.32,2.32,0,0,0,1.27-.61,14.21,14.21,0,0,0,1.66-1.56q0.88-1,1.83-2.1t1.78-2.22l1.49-1.9q0.66-.83,1-1.22a1.45,1.45,0,0,1,.78-0.51,0.53,0.53,0,0,1,.59.22,1.16,1.16,0,0,1,.07.88A3.66,3.66,0,0,1,271.74,284.78Zm-14.31,2.15q0.24-1,.59-2.29t0.59-2.54q0.24-1.22.37-2t-0.07-.76a4.56,4.56,0,0,0-.54.15,2.59,2.59,0,0,1-.63.15,6.64,6.64,0,0,0-.78.15,4.49,4.49,0,0,0,.46-1.29,2.79,2.79,0,0,0,0-.81,1.16,1.16,0,0,0-.2-0.54q-0.54-.44-1.88.71a16.61,16.61,0,0,0-3.1,4.22,13,13,0,0,0-1.17,2.71,17.19,17.19,0,0,0-.61,2.71,9.52,9.52,0,0,0-.07,2.22,2.16,2.16,0,0,0,.39,1.25,1.59,1.59,0,0,0,1.22.51,3.27,3.27,0,0,0,1.39-.39,8,8,0,0,0,1.42-1,11.34,11.34,0,0,0,1.27-1.22,12,12,0,0,0,.93-1.17A2.61,2.61,0,0,0,257.43,286.93Z" transform="translate(-217.99 -257.59)"/>
    <path d="M267.86,294.26a1.72,1.72,0,0,1-.76.71,1,1,0,0,1-.73,0,0.68,0.68,0,0,1-.42-0.51,1.46,1.46,0,0,1,.2-1l0.66-1.32,1.22-2.47,1.54-3.12,1.59-3.2q0.76-1.51,1.39-2.71l0.93-1.73q-0.54-.49-0.73-0.71a2,2,0,0,1-.29-1,3.42,3.42,0,0,1,.29-1.66,9.92,9.92,0,0,1,1-2,8.19,8.19,0,0,1,1.42-1.64,2.34,2.34,0,0,1,1.51-.68,2.11,2.11,0,0,1,1.93.88,4.15,4.15,0,0,1,.66,1.81,4.78,4.78,0,0,1-.1,1.61,4.69,4.69,0,0,1-.73,1.76,3.59,3.59,0,0,0,.39.22,1.85,1.85,0,0,0,.78.12,4.22,4.22,0,0,0,1.1-.1,3.71,3.71,0,0,1,1-.1,2.17,2.17,0,0,1,1.37.42,3.35,3.35,0,0,1,.88,1,5.2,5.2,0,0,1,.51,1.32,8.65,8.65,0,0,1,.22,1.29,4,4,0,0,1-.63,2.54q-0.78,1.32-1.9,2.88-0.68,1-1.37,2.2a3.79,3.79,0,0,0-.59,2.2,2.69,2.69,0,0,0,.34,1,1.61,1.61,0,0,0,1.37.39,3.58,3.58,0,0,0,1.83-.61,13.71,13.71,0,0,0,2.05-1.56,28,28,0,0,0,2.08-2.1q1-1.15,1.9-2.25t1.49-2q0.61-.88.9-1.27a1.26,1.26,0,0,1,.63-0.54,0.83,0.83,0,0,1,.68,0,0.74,0.74,0,0,1,.37.59,1.87,1.87,0,0,1-.37,1.17q-0.29.49-1,1.56t-1.71,2.39q-1,1.32-2.22,2.71A25.23,25.23,0,0,1,286,293.5a15.81,15.81,0,0,1-2.69,1.88,5.37,5.37,0,0,1-2.56.73,4.09,4.09,0,0,1-2.1-.49,4.36,4.36,0,0,1-1.34-1.2,4.58,4.58,0,0,1-.73-1.56,5,5,0,0,1-.17-1.59,4.24,4.24,0,0,1,.32-1.25q0.27-.66.63-1.37t0.78-1.42q0.41-.71.76-1.39,0.83-1.42,1.34-2.42a3.88,3.88,0,0,0,.51-1.68,1.55,1.55,0,0,0-.2-0.78,0.68,0.68,0,0,0-.63-0.34,2.43,2.43,0,0,0-.42,0l-0.24,0-0.34,0a6.41,6.41,0,0,1-.66,0,2.64,2.64,0,0,1-1.07-.2,5.18,5.18,0,0,0-.83-0.29q-0.2.34-.88,1.46l-1.59,2.64-1.9,3.17-1.88,3.1-1.49,2.44Q268,294.06,267.86,294.26Z" transform="translate(-217.99 -257.59)"/>
    <path d="M314,292.25a14.43,14.43,0,0,1,.22-2.34q0.22-1.32.56-2.71t0.68-2.71q0.34-1.32.59-2.34a3,3,0,0,0,0-2,1.21,1.21,0,0,0-1.17-.68,4.14,4.14,0,0,0-1.54.68,9.91,9.91,0,0,0-2.49,2.37,21.72,21.72,0,0,0-2.64,4.54,29.54,29.54,0,0,0-2,7.25,6.1,6.1,0,0,1-1.76.63l-0.78.15a1.51,1.51,0,0,1-1.27-.32,2.4,2.4,0,0,1,.1-1.78q0.19-.68.71-2.2t1-3.3q0.49-1.78.85-3.56a15.69,15.69,0,0,0,.37-3.1,1.9,1.9,0,0,0-.32-1.27,1.17,1.17,0,0,0-.9-0.34,4.11,4.11,0,0,0-1.46.49,7.9,7.9,0,0,0-2.29,1.9,17.68,17.68,0,0,0-2.51,3.93,28.88,28.88,0,0,0-2.12,6.52V292l-0.2.78a4.81,4.81,0,0,0-.15.73,5,5,0,0,1-.15.73l-2.44,1.07a2.65,2.65,0,0,1-.61.15,1.11,1.11,0,0,1-.68-0.12,1.07,1.07,0,0,1-.46-0.71,3.59,3.59,0,0,1,.1-1.61l3.08-12.74q0.15-.63.24-1.22a8.16,8.16,0,0,0,.12-1,2.73,2.73,0,0,0-.07-0.85,11.35,11.35,0,0,1,1.46-.59l1-.29a3,3,0,0,1,.83-0.15q1.56,0,1,2.69l-0.59,2.29a25.63,25.63,0,0,1,2-2.22,22.18,22.18,0,0,1,2.12-1.88,10.63,10.63,0,0,1,2.17-1.32,5.32,5.32,0,0,1,2.17-.49,2,2,0,0,1,1.39.49A3.27,3.27,0,0,1,309,277a6,6,0,0,1,.37,1.9,13.5,13.5,0,0,1-.1,2.27q0.78-1,1.73-2.08a16.65,16.65,0,0,1,2-1.88,11.51,11.51,0,0,1,2.17-1.37,5.17,5.17,0,0,1,2.25-.54,2.6,2.6,0,0,1,2,.78,4.3,4.3,0,0,1,1,2,8.76,8.76,0,0,1,.15,2.64,21,21,0,0,1-.42,2.73l-1.66,6.59q-0.54,2.44,1,2.44a4.46,4.46,0,0,0,2.69-1.17,21.76,21.76,0,0,0,2.86-2.78q1.39-1.61,2.61-3.32t2.05-2.73a1,1,0,0,1,.61-0.39,0.67,0.67,0,0,1,.54.12,0.73,0.73,0,0,1,.24.56,2,2,0,0,1-.27,1q-1,1.71-2.39,3.78a32.72,32.72,0,0,1-3.1,3.88,18.73,18.73,0,0,1-3.59,3,7.23,7.23,0,0,1-4,1.22,6.17,6.17,0,0,1-1.34-.15,3.43,3.43,0,0,1-1.22-.54,2.84,2.84,0,0,1-.9-1A3.64,3.64,0,0,1,314,292.25Z" transform="translate(-217.99 -257.59)"/>
    <path d="M332.42,276.14a1.87,1.87,0,0,1,.93-0.49,12.9,12.9,0,0,1,1.42-.32,11,11,0,0,1,1.34-.15,2.44,2.44,0,0,1,.71,0,3.73,3.73,0,0,1-.24,1q-0.29,1-.73,2.29t-0.93,2.71q-0.49,1.39-.73,2.27t-0.59,2q-0.34,1.1-.61,2.15a13.7,13.7,0,0,0-.37,2,2.62,2.62,0,0,0,.15,1.42,1.91,1.91,0,0,0,.54.81,1,1,0,0,0,.63.22A4.61,4.61,0,0,0,336.4,291a27.57,27.57,0,0,0,3-2.56q1.54-1.49,2.86-3a31,31,0,0,0,2-2.47,1.87,1.87,0,0,1,.81-0.63,0.71,0.71,0,0,1,.68,0,0.79,0.79,0,0,1,.29.63,1.9,1.9,0,0,1-.32,1,26,26,0,0,1-2.29,3.25,48.31,48.31,0,0,1-3.22,3.61,29.62,29.62,0,0,1-3.34,3,5.41,5.41,0,0,1-2.66,1.27,3.82,3.82,0,0,1-1.64-.27,5.15,5.15,0,0,1-1.46-.88,5,5,0,0,1-1.1-1.32,3.53,3.53,0,0,1-.49-1.59,18.78,18.78,0,0,1,0-3.34,41.57,41.57,0,0,1,.54-4.35,35.47,35.47,0,0,1,1-4.22A9.08,9.08,0,0,1,332.42,276.14Zm6.74-10.4a2.88,2.88,0,0,1-.56,1,3.71,3.71,0,0,1-.93.83,3,3,0,0,1-1,.42,1,1,0,0,1-.88-0.2,2.33,2.33,0,0,1-1.07-1.68,2.92,2.92,0,0,1,.44-1.71,4.91,4.91,0,0,1,1.22-1.37,3.17,3.17,0,0,1,1.27-.66,1,1,0,0,1,.9.22,2,2,0,0,1,.56.83,3.62,3.62,0,0,1,.22,1.15A3.46,3.46,0,0,1,339.16,265.74Z" transform="translate(-217.99 -257.59)"/>
    <path d="M357.89,295.72a4.17,4.17,0,0,1-1.93-.42,3.57,3.57,0,0,1-1.29-1.1,3.7,3.7,0,0,1-.63-1.59,4.89,4.89,0,0,1,.1-1.93q0.15-.68.49-1.83t0.71-2.49q0.37-1.34.68-2.69a17.56,17.56,0,0,0,.42-2.44,5.23,5.23,0,0,0-.1-1.81,0.82,0.82,0,0,0-.83-0.71,3.06,3.06,0,0,0-1.61.51,8.93,8.93,0,0,0-1.68,1.39,20.19,20.19,0,0,0-1.71,2q-0.86,1.15-1.68,2.37-0.44,1.66-.73,2.91t-0.51,2.25q-0.22,1-.42,1.76t-0.34,1.44a1.89,1.89,0,0,1-.88,1,7.75,7.75,0,0,1-1.56.76,4.43,4.43,0,0,1-1.44.29q-0.61,0-.51-0.44t0.32-1.32l0.63-2.42q0.37-1.39.76-3t0.73-3l0.54-2.49q0.24-1.17.61-2.73t0.85-3.42a3.12,3.12,0,0,1,.71-0.46,4.22,4.22,0,0,1,.76-0.27,3.44,3.44,0,0,1,.83-0.2,6.37,6.37,0,0,1,.78,0,4.11,4.11,0,0,1,.71.17,2,2,0,0,1,.66.37q-0.15.34-.34,1t-0.39,1.29q-0.2.78-.49,1.61a22.32,22.32,0,0,1,1.44-1.78,12.86,12.86,0,0,1,1.76-1.64,9.47,9.47,0,0,1,2-1.2,5.49,5.49,0,0,1,2.2-.46,2.74,2.74,0,0,1,1.66.54,3.57,3.57,0,0,1,1.15,1.49,6.59,6.59,0,0,1,.49,2.27,8.86,8.86,0,0,1-.37,2.88l-0.54,2.15q-0.24,1-.61,2.42t-0.9,3.05a5.3,5.3,0,0,0-.22,1.86,0.82,0.82,0,0,0,1,.78,4,4,0,0,0,2.22-1.07,23.34,23.34,0,0,0,2.71-2.59q1.37-1.51,2.59-3.1t1.86-2.56a2.48,2.48,0,0,1,.83-0.83,0.6,0.6,0,0,1,.61,0,0.76,0.76,0,0,1,.22.66,3.07,3.07,0,0,1-.39,1.29q-0.34.68-1,1.81T367,288.45q-1,1.27-2.1,2.56a22.69,22.69,0,0,1-2.34,2.34,14.42,14.42,0,0,1-2.42,1.71A4.72,4.72,0,0,1,357.89,295.72Z" transform="translate(-217.99 -257.59)"/>
    <path d="M392.79,284.78q-0.68,1-1.76,2.42t-2.22,2.88q-1.15,1.44-2.25,2.64a11.08,11.08,0,0,1-1.83,1.68,5.13,5.13,0,0,1-1.12.49,5.92,5.92,0,0,1-1.29.24,4.49,4.49,0,0,1-1.25-.07,2.9,2.9,0,0,1-1-.42,2.56,2.56,0,0,1-.73-1,8.43,8.43,0,0,1-.46-1.42,8,8,0,0,1-.17-2.2,10.19,10.19,0,0,1-2.59,3,11.55,11.55,0,0,1-2.69,1.54,10.55,10.55,0,0,1-2.93.63,2.9,2.9,0,0,1-1.46-.46,3.63,3.63,0,0,1-1.32-1.46,6.82,6.82,0,0,1-.68-2.59,11.73,11.73,0,0,1,.39-3.78,18.08,18.08,0,0,1,2.17-5.42,21.66,21.66,0,0,1,3.25-4.17,14.45,14.45,0,0,1,3.47-2.61,5.49,5.49,0,0,1,2.83-.78,5.94,5.94,0,0,1,2.15.78,2.34,2.34,0,0,1,.9,1.44,3.51,3.51,0,0,1-.81,2.51,11.3,11.3,0,0,1,1.15-.2q0.46,0,.71,0a1,1,0,0,1,.39,0,1.12,1.12,0,0,1,0,.42,7.89,7.89,0,0,1-.15,1.15q-0.15.83-.44,2.25T382.29,286q-0.1.44-.17,0.81l-0.15.73-0.17.85-0.24,1.22a5.93,5.93,0,0,0,0,1,3.5,3.5,0,0,0,.17,1,1.54,1.54,0,0,0,.46.71,1.36,1.36,0,0,0,.9.27,2.32,2.32,0,0,0,1.27-.61,14.21,14.21,0,0,0,1.66-1.56q0.88-1,1.83-2.1t1.78-2.22l1.49-1.9q0.66-.83,1-1.22a1.45,1.45,0,0,1,.78-0.51,0.53,0.53,0,0,1,.59.22,1.16,1.16,0,0,1,.07.88A3.67,3.67,0,0,1,392.79,284.78Zm-14.31,2.15q0.24-1,.59-2.29t0.59-2.54q0.24-1.22.37-2t-0.07-.76a4.56,4.56,0,0,0-.54.15,2.6,2.6,0,0,1-.63.15,6.62,6.62,0,0,0-.78.15,4.5,4.5,0,0,0,.46-1.29,2.79,2.79,0,0,0,0-.81,1.17,1.17,0,0,0-.2-0.54q-0.54-.44-1.88.71a16.61,16.61,0,0,0-3.1,4.22,13,13,0,0,0-1.17,2.71,17.14,17.14,0,0,0-.61,2.71,9.52,9.52,0,0,0-.07,2.22,2.16,2.16,0,0,0,.39,1.25,1.59,1.59,0,0,0,1.22.51,3.27,3.27,0,0,0,1.39-.39,8,8,0,0,0,1.42-1,11.38,11.38,0,0,0,1.27-1.22,12,12,0,0,0,.93-1.17A2.62,2.62,0,0,0,378.48,286.93Z" transform="translate(-217.99 -257.59)"/>
  </g>
</svg>
