<svg id="Слой_1" data-name="Слой 1" xmlns="http://www.w3.org/2000/svg" viewBox="0 0 70.74 39.4">
  <defs>
    <style>
      .cls-1 {
        fill: #222;
      }
    </style>
  </defs>
  <title>03_voix-agency</title>
  <path class="cls-1" d="M282.81,147.54a7.58,7.58,0,0,0-1.72.31,6.51,6.51,0,0,0-1.67.7,4.52,4.52,0,0,0-1.49,1.48,17.54,17.54,0,0,0-1.11,2.13q-1.83,4.35-5.5,13.55t-7.55,19.18h-2.27q-3.94-10.58-7.6-20.4t-5-13.26a5.15,5.15,0,0,0-.87-1.49,6.39,6.39,0,0,0-1.45-1.22,5.77,5.77,0,0,0-1.64-.7,9.45,9.45,0,0,0-1.67-.29V145.6h16.06v1.94a22.77,22.77,0,0,0-3.46.41q-1.41.3-1.41,1.07a2.8,2.8,0,0,0,.11.71c0.07,0.27.14,0.49,0.19,0.66l3.28,8.74,6.45,17.25q2.08-5.06,4.79-12t3.64-9.47a22.64,22.64,0,0,0,1.05-3.45,10.49,10.49,0,0,0,.15-1.56,1.28,1.28,0,0,0-.56-1.05,5.06,5.06,0,0,0-1.49-.72,12.71,12.71,0,0,0-1.83-.41q-0.93-.14-1.89-0.22V145.6h14.43v1.94Z" transform="translate(-243.29 -145.53)"/>
  <path class="cls-1" d="M282.81,147.54a7.58,7.58,0,0,0-1.72.31,6.51,6.51,0,0,0-1.67.7,4.52,4.52,0,0,0-1.49,1.48,17.54,17.54,0,0,0-1.11,2.13q-1.83,4.35-5.5,13.55t-7.55,19.18h-2.27q-3.94-10.58-7.6-20.4t-5-13.26a5.15,5.15,0,0,0-.87-1.49,6.39,6.39,0,0,0-1.45-1.22,5.77,5.77,0,0,0-1.64-.7,9.45,9.45,0,0,0-1.67-.29V145.6h16.06v1.94a22.77,22.77,0,0,0-3.46.41q-1.41.3-1.41,1.07a2.8,2.8,0,0,0,.11.71c0.07,0.27.14,0.49,0.19,0.66l3.28,8.74,6.45,17.25q2.08-5.06,4.79-12t3.64-9.47a22.64,22.64,0,0,0,1.05-3.45,10.49,10.49,0,0,0,.15-1.56,1.28,1.28,0,0,0-.56-1.05,5.06,5.06,0,0,0-1.49-.72,12.71,12.71,0,0,0-1.83-.41q-0.93-.14-1.89-0.22V145.6h14.43v1.94Z" transform="translate(-243.29 -145.53)"/>
  <path class="cls-1" d="M274.52,183a7.53,7.53,0,0,0,1.72-.31,6.49,6.49,0,0,0,1.67-.7,4.53,4.53,0,0,0,1.49-1.48,17.61,17.61,0,0,0,1.11-2.14q1.83-4.36,5.5-13.58t7.55-19.23h2.27q3.94,10.61,7.6,20.45t5,13.3a5.17,5.17,0,0,0,.88,1.49,6.41,6.41,0,0,0,1.45,1.22,5.76,5.76,0,0,0,1.64.7A9.45,9.45,0,0,0,314,183v1.95H298V183a22.62,22.62,0,0,0,3.46-.41q1.41-.3,1.41-1.07a2.81,2.81,0,0,0-.11-0.71c-0.07-.27-0.14-0.49-0.19-0.66q-1-2.69-3.28-8.76l-6.45-17.3q-2.08,5.07-4.79,12t-3.64,9.49a22.74,22.74,0,0,0-1.05,3.46,10.55,10.55,0,0,0-.15,1.56,1.28,1.28,0,0,0,.56,1.06,5,5,0,0,0,1.49.73,12.66,12.66,0,0,0,1.83.41Q288,182.9,289,183v1.95H274.52V183Z" transform="translate(-243.29 -145.53)"/>
</svg>
