<svg id="Layer_1" data-name="Layer 1" xmlns="http://www.w3.org/2000/svg" viewBox="0 0 1022.08 241.3"><path d="M141.19,245.57a16.43,16.43,0,0,1-5.23-.66q-8.36-2.85-13.4-13-3.87-7.35-6.35-19.21t-4-31.77q-1.5-19.9-2.42-51.33-.75-22.93-1.54-23.73a15.31,15.31,0,0,0-1.31,2.55q-1.15,2.46-2.68,6.15L93.42,140.72q-16.31,39.42-26,59.45t-15.84,27q-6.1,6.93-9.45,7.1c-2.22.12-3.44.18-3.64.18q-5.94,0-9.63-6A22.31,22.31,0,0,1,26.07,220a107.8,107.8,0,0,1-.76-14.72q0-8.58.52-16.26.84-12.75,4.09-34.37,3.6-23.73,5.23-30.76,1.18-5.4,1.49-7.25Q39.42,101.47,44.05,83T53.3,50.23Q58,35.7,58.7,35.69q.18,0,.18.66c0,.06,0,.08,0,.08.21,0,.82-1.18,1.85-3.55q2.23-5.37,3-5.37a.08.08,0,0,1,.09.09,1.66,1.66,0,0,1-.18.53c-.11.26-.41,1-.9,2.2s-1,2.56-1.67,4.08-1.18,3-1.67,4.53a23.42,23.42,0,0,0-.9,3.45c-.11.81-.25,1.63-.39,2.48a18.14,18.14,0,0,1,2.28-3.51s0,0,0,0l0,.22q-.3,1-1.91,6.68t-2.83,9.54a24.56,24.56,0,0,0-1.23,5.36c0,.14,0,.22.08.22s.47-.71.88-2.11q2.77-9.45,6.15-19.16a22.13,22.13,0,0,1,1.45-3.74v.09q0,1.19-2.5,9.27-6.06,19.7-6.37,29.09c0,2.64-.13,4-.4,4t-.09-.09c-.14-.38-.26-.57-.35-.57a11.4,11.4,0,0,0-.44,3.12c0,.41.22.62.66.62l.57-.09c.12,0,.18,0,.18.13s-.14.37-.42.68a1.4,1.4,0,0,0-.42.95.39.39,0,0,0,.11.28.27.27,0,0,1,.11.2c0,.17-.18.26-.54.26s-.55.08-.55.22.13.3.39.53a1.14,1.14,0,0,1,.4.88,2.2,2.2,0,0,1-.27,1,17.75,17.75,0,0,0-.92,5.16q-.3,3.8-.62,5.51a70.47,70.47,0,0,0-1.18,9.32c-.09,1.26-.13,2.14-.13,2.64a3.22,3.22,0,0,0,0,.68,2,2,0,0,1,0,.5,58.86,58.86,0,0,1-1,7.25q-10.72,58.75-10.72,87,0,10.8,1.93,10.81,3.16,0,13-19.65Q63.76,177.58,80.41,137q3.48-8.39,5.65-14.1a49.43,49.43,0,0,0,2.18-6.29.71.71,0,0,1-.09-.31c0-.17.09-.26.28-.26s.43-.2.71-.59a9,9,0,0,0,.77-1.43q2.9-7.17,6.28-14.24a91.2,91.2,0,0,1,5.14-9.71q3.21-4.53,5.89-5.76a11.16,11.16,0,0,1,4.35-1.23q6.68,0,9.49,12.17a57.75,57.75,0,0,1,1.23,7.39q.79,7.47,1.76,40,.84,26.76,2,41.35a200,200,0,0,0,3.43,25.09q3.08,15,7.73,20.3a9.86,9.86,0,0,0,2.33,2.2,4.09,4.09,0,0,0,2,.49,10.75,10.75,0,0,0,2.86-.49,16.43,16.43,0,0,0,6-3.34,20.42,20.42,0,0,0,2.68-2.66,3.81,3.81,0,0,0,1-1.78l-.09-.35c0-.23.21-.45.62-.66q1.32-.7,5.58-10.19,1.75-4,3-7.65,2-5.85,5.63-19.95,1.44-5.62,2-8.53l.75-3.64q4.53-22.55,6.5-42.54.41-4.44,1.06-11.3t1.23-13q1.46-16.17,1.45-35.38,0-34.62-4.53-50c-1.37-4.6-2.61-6.9-3.69-6.9a3.75,3.75,0,0,0-1.87.7,4.23,4.23,0,0,1-1.42.71c-.06,0-.09,0-.09-.05,0-.23.52-.67,1.58-1.32a3.14,3.14,0,0,1,1.54-.7,1.64,1.64,0,0,1,1,.46,1.7,1.7,0,0,0,1.08.46c.17,0,.26-.06.26-.17,0-.3-.41-.63-1.23-1a3.3,3.3,0,0,0-1.49-.4,2.64,2.64,0,0,0-1.41.4c-.91.55-2.28,2.11-4.11,4.65a81.65,81.65,0,0,0-5.25,8.4,38.19,38.19,0,0,1-2.81,4.74c-.35.21-1,1.32-1.85,3.34-.88,1.82-1.43,2.73-1.67,2.73,0,0,0,0,0,0v-.07q0-1.05,3.12-7.34,3.42-6.9,5.67-10.46,5.31-8.43,9.05-8.43a4.06,4.06,0,0,1,2.77,1A13.93,13.93,0,0,1,179,15.12c.55,1,.89,1.5,1,1.5s0-.05,0-.14L180,16a13,13,0,0,0-2.15-4.26q-2-2.55-3.87-2.55-3.47,0-7.82,5.28l-5.54,6.94a18.81,18.81,0,0,0,1.65-3,3.88,3.88,0,0,0,.16-.84.37.37,0,0,0,0-.17.51.51,0,0,1,0-.22c0-.74.95-2.23,2.85-4.49q5.06-5.92,9-5.93,3.34,0,6.11,4c1,1.4,1.67,2.11,2,2.11.12,0,.18-.08.18-.22a6.25,6.25,0,0,0-.88-2.11,6.36,6.36,0,0,1-.7-1.41v0c.05,0,.19.11.39.35q4,5.06,7,17.91a162.78,162.78,0,0,1,3.85,28.27q.17,3.61.44,6.09a7.21,7.21,0,0,0,.43,2.48c.21,0,.31-.85.31-2.54q0-6.78-1.32-21.71c-.52-6-.79-9.7-.79-11.17,0-.55,0-.83.09-.83s.5,1.21,1.06,3.65a91.38,91.38,0,0,1,2.11,14.19q.92,12.26.92,35.2,0,12-.75,23.07-3.25,44.13-10.85,77.79T166,230.94Q155.79,245.57,141.19,245.57ZM93.11,101.39c-.06,0-.08-.08-.08-.22a2.11,2.11,0,0,1,.17-.73,4.23,4.23,0,0,1,.51-.92c.22-.31.37-.46.46-.46s.09.07.09.22a2,2,0,0,1-.18.7,5.06,5.06,0,0,1-.51.92C93.35,101.23,93.2,101.39,93.11,101.39ZM111,105.25c.05,0,.13-.22.21-.66a2.54,2.54,0,0,0,0-.52,6.34,6.34,0,0,0-.44-2.16c-.44-1.08-1-1.62-1.54-1.62s-1.21.5-1.89,1.49a8.26,8.26,0,0,0-1,1.89c0,.06,0,.09,0,.09s.52-.37,1.19-1.1,1-1.14,1.28-1.14.55.29,1,.88a4.73,4.73,0,0,1,1,2.19C110.85,105,110.9,105.25,111,105.25Zm.43,8.26c.41,0,.62-.22.62-.65a.55.55,0,0,0-.62-.62c-.43,0-.65.21-.65.62A.58.58,0,0,0,111.39,113.51Zm.31,6.42s.06-.09.09-.26a4.15,4.15,0,0,0,.13-1.1,4.1,4.1,0,0,0-.13-1.1c0-.18-.06-.26-.09-.26s-.17.45-.17,1.36S111.58,119.93,111.7,119.93Zm1.19,42.8c.2,0,.31-.19.31-.57a1.66,1.66,0,0,0-.14-.66c-.08-.2-.16-.3-.22-.3s-.14.22-.17.65C112.67,162.44,112.74,162.73,112.89,162.73Zm.09,8.35c.14,0,.22-.86.22-2.59,0-1.9-.08-2.86-.22-2.86a13.87,13.87,0,0,0-.14,2.6A11.21,11.21,0,0,0,113,171.08Zm.57,4.09c.17,0,.26-.31.26-.92s-.09-.93-.26-.93-.18.31-.18.93S113.43,175.17,113.55,175.17Zm2.06,25.44a1.54,1.54,0,0,0,0-.52c0-1.12-.16-3.75-.49-7.91a85.37,85.37,0,0,0-1.27-10c-.18-.71-.31-1.06-.4-1.06s0,.11,0,.31,0,.89.13,1.71Q115.23,200.53,115.61,200.61Zm.53,4.14s.06-.09.09-.27a4.57,4.57,0,0,0,.13-1.14,4.42,4.42,0,0,0-.13-1.1c0-.18-.06-.26-.09-.26s-.18.45-.18,1.36S116,204.75,116.14,204.75Zm1.14,4.92c.06,0,.09-.16.09-.49s-.09-.73-.17-1.23c-.15-.73-.3-1.1-.44-1.1s-.27.25-.27.75a3.89,3.89,0,0,0,.35,1.58C117,209.51,117.11,209.67,117.28,209.67ZM190.72,26.06q-.18,0-.18-.57c0-.67,0-1,.13-1s.13.11.22.33a1.79,1.79,0,0,1,.13.68Q191,26.06,190.72,26.06Zm2.54,47.46c.18,0,.28-.19.31-.57a1.79,1.79,0,0,0-.13-.68c-.09-.22-.16-.33-.22-.33s-.15.24-.18.71S193.12,73.52,193.26,73.52ZM204.73,154a.6.6,0,0,1-.28-.18,2.17,2.17,0,0,1-.35-.39.68.68,0,0,1-.16-.35c0-.24.14-.36.4-.36.47,0,.7.22.7.66S204.94,154,204.73,154Z" transform="translate(-25.31 -6.77)" fill="#a71f24"/><path d="M236.73,199.91a9.13,9.13,0,0,1-5-1.41,13.13,13.13,0,0,1-3.51-3.51,16.35,16.35,0,0,1-2.07-6.24,51.8,51.8,0,0,1-.66-8.26l.09-5a9,9,0,0,0-.18-2.81c-.2,0-.72.69-1.54,2.06a35.24,35.24,0,0,1-4.46,5.5,31,31,0,0,1-5.16,4.57,13,13,0,0,1-6.55,2.06q-6.19,0-9.09-6.72a20.91,20.91,0,0,1-1.1-7.25,52.74,52.74,0,0,1,1.36-11,115.43,115.43,0,0,1,8.35-24.3q7.24-15.6,16.22-23a15,15,0,0,1,9.75-3.69,16.12,16.12,0,0,1,8,2.24q3.69,2.07,3.69,2.94c0,.15-.09.22-.27.22a2.69,2.69,0,0,1-1.23-.57l-.22-.13,0,0a9.91,9.91,0,0,0,1.32,1.59c1.23,1.34,1.84,2.18,1.84,2.5,0,.09,0,.13-.13.13-.29,0-1.07-.63-2.33-1.89q-2.19-2.19-2.94-2.19c-.53,0-.79.13-.79.39s.45.87,1.36,1.63l1.45,1.27L241,117.78a13.69,13.69,0,0,0-7.12-2.42,4.11,4.11,0,0,0-1.65.31c-.48.2-.72.35-.72.44s.69.23,2.06.26c3.14.12,5.51,1.11,7.12,3,.27.29.4.48.4.57l-.05,0a5.94,5.94,0,0,1-1.36-.87,8.82,8.82,0,0,0-5.1-1.89,6.75,6.75,0,0,0-4.83,2,11.11,11.11,0,0,0-2,2.28,3.71,3.71,0,0,0-.7,1.78l0,.35a1.71,1.71,0,0,1,.13.57c0,.3-.1.44-.3.44-.38,0-1,1.41-1.81,4.22a23.81,23.81,0,0,0-.68,3.08c-.13.94-1.23,3.48-3.31,7.64a137.38,137.38,0,0,0-6.42,16,20.67,20.67,0,0,0-1.27,4.93c0,1.2.23,1.8.7,1.8q1.67,0,5.14-7,2.11-4.14,7.16-16.13,2.12-5,3.94-8.68a27.2,27.2,0,0,1,2.48-4.46,4.89,4.89,0,0,1,3.82-1.41h.75c2.67,0,4.36,1.06,5.1,3.17a16.48,16.48,0,0,1,.57,5,73.06,73.06,0,0,1-.53,7.86q-3.12,29.36-3.12,37.8a8.29,8.29,0,0,0,.35,3.29h.09c.47,0,1.42-.86,2.86-2.59a76.3,76.3,0,0,0,4.83-6.55,52.88,52.88,0,0,0,4-6.85,45.53,45.53,0,0,1,3.38-6,59.58,59.58,0,0,0,4.44-8.44q2.28-5,2.64-5l0,.13a5.54,5.54,0,0,1-.79,2.06,10,10,0,0,0-1,2.42c0,.09,0,.13.09.13.23,0,.89-1.1,2-3.29.52-1.09,1-2.19,1.4-3.3a32.93,32.93,0,0,1,2.77-5.71c.29-.41.48-.62.57-.62s.13.08.13.22a54.26,54.26,0,0,1-2.24,7.43c-1.46,4.33-2.43,7-2.9,8a2,2,0,0,0-.35,1,.12.12,0,0,0,.13.13q.36,0,2.95-5.54c1.43-3.1,2.34-4.66,2.72-4.66s.35.34.35,1a14.4,14.4,0,0,1-1.05,4.57,14.12,14.12,0,0,0-1,3.43c0,.24.09.35.27.35a1,1,0,0,0,.26-.06.8.8,0,0,1,.31-.07c.2,0,.3.15.3.44a28.83,28.83,0,0,1-1.49,5.49,72.93,72.93,0,0,1-3.65,9.54,4.48,4.48,0,0,0-.57,1.58c0,.09,0,.13.09.13l.13,0a5.86,5.86,0,0,0,1-1.36c.49-.76,1-1.66,1.52-2.68s1.09-2.06,1.69-3.1,1.11-1.86,1.52-2.46.83-1.21,1.27-1.82l-.39,1.88a32.21,32.21,0,0,1-2.29,5.89q-1.89,4-4.3,8.46t-4.44,7.41q-8.18,11.91-14.07,14.9A14.9,14.9,0,0,1,236.73,199.91Z" transform="translate(-25.31 -6.77)" fill="#a71f24"/><path d="M271.62,183.48q-10.9-.18-13.36-.44c-1-.18-1.54-.53-1.54-1.06a2.5,2.5,0,0,1,.09-.61q.22-1.27.66-11.17.34-8.91,1.36-19.64,1.05-10.11,1.14-20.87,0-12.4.57-12.4h0a3.78,3.78,0,0,1,.75.93c.46.7.85,1,1.14,1s.33-.15.48-.46.28-.46.4-.46.23.23.35.61a26.52,26.52,0,0,0,1.45,4.05h0c.09,0,.13-.21.13-.62a15.69,15.69,0,0,0-.52-3.34,5.18,5.18,0,0,1-.27-1.49q0-.27.09-.27c.15,0,.35.32.62.95a13.52,13.52,0,0,1,.66,2.09q1.23,4.35,2,4.35a.41.41,0,0,0,.22-.11,9.16,9.16,0,0,0,.77-1.37c.42-.83.93-1.83,1.51-3q4.31-8.91,9.8-8.92a10,10,0,0,1,5.8,2.2,12.08,12.08,0,0,1,3.19,3,49.81,49.81,0,0,1,3.54,6,47.63,47.63,0,0,0,5.4,8.24q2.73,3.22,4.35,3.36a1.9,1.9,0,0,1,1.37,1.06,1.13,1.13,0,0,0,.72.7,3.43,3.43,0,0,0,.68.09,8.66,8.66,0,0,0,1.63-.22,28.07,28.07,0,0,1,4.52-.71q.57,0,.57.18c0,.29-.64.69-1.93,1.19A21.44,21.44,0,0,1,303.7,138c-.29,0-.44.05-.44.08a6.51,6.51,0,0,0,2.09.36,13,13,0,0,1,2.66.44c.38.14.57.32.57.52s-.41.63-1.23.93a10.1,10.1,0,0,1-2.07.52c-1.55.21-2.33.54-2.33,1a.43.43,0,0,0,.07.22.66.66,0,0,1,.06.27q0,.57-1.89.57a14.14,14.14,0,0,1-4.83-1,20.61,20.61,0,0,1-4.88-2.57l-2.37-1.76c.53.59,1,1.16,1.54,1.74a17,17,0,0,0,2.11,2q1.19,1,5.84,4.26l-2.13-.41a13.29,13.29,0,0,1-2.22-.66,14.28,14.28,0,0,1-2-1,29.9,29.9,0,0,1-5.32-4.79,28.13,28.13,0,0,1-4.22-5.56c-.79-1.51-1.31-2.26-1.58-2.26s-.85,1.33-1.67,4-1.7,6-2.64,9.95q-.82,3.69-2.15,13.45Q273.24,168.36,271.62,183.48Zm1.63-29.23a.26.26,0,0,0,.17-.11.5.5,0,0,0,.09-.33v-.31a1.58,1.58,0,0,0-.11-.54c-.07-.2-.14-.29-.2-.29s-.15.23-.17.7S273.1,154.25,273.25,154.25Zm.48-3.07q.57,0,1.71-7.26-1.19,3.53-1.45,4.66a10,10,0,0,0-.35,2.2C273.64,151,273.67,151.18,273.73,151.18Z" transform="translate(-25.31 -6.77)" fill="#a71f24"/><path d="M312.8,183.48q-10.91-.18-13.36-.44c-1-.18-1.54-.53-1.54-1.06a2.5,2.5,0,0,1,.09-.61q.21-1.27.66-11.17.35-8.91,1.36-19.64,1-10.11,1.14-20.87,0-12.4.57-12.4h0a4.14,4.14,0,0,1,.74.93c.47.7.85,1,1.15,1s.33-.15.48-.46.28-.46.39-.46.24.23.36.61a26.52,26.52,0,0,0,1.45,4.05h0c.09,0,.13-.21.13-.62a15.21,15.21,0,0,0-.53-3.34,5.49,5.49,0,0,1-.26-1.49q0-.27.09-.27c.15,0,.35.32.61.95a11.66,11.66,0,0,1,.66,2.09c.82,2.9,1.5,4.35,2,4.35a.38.38,0,0,0,.22-.11,8.24,8.24,0,0,0,.77-1.37c.43-.83.93-1.83,1.52-3q4.31-8.91,9.8-8.92a10,10,0,0,1,5.8,2.2,12.24,12.24,0,0,1,3.19,3,48.74,48.74,0,0,1,3.53,6,47.62,47.62,0,0,0,5.41,8.24q2.73,3.22,4.35,3.36a1.86,1.86,0,0,1,1.36,1.06,1.17,1.17,0,0,0,.73.7,3.35,3.35,0,0,0,.68.09,8.47,8.47,0,0,0,1.62-.22,28.3,28.3,0,0,1,4.53-.71q.57,0,.57.18c0,.29-.64.69-1.93,1.19a21.52,21.52,0,0,1-6.37,1.67c-.3,0-.44.05-.44.08a6.4,6.4,0,0,0,2.08.36,12.71,12.71,0,0,1,2.66.44c.38.14.57.32.57.52s-.41.63-1.23.93a9.84,9.84,0,0,1-2.06.52c-1.56.21-2.33.54-2.33,1a.52.52,0,0,0,.06.22.54.54,0,0,1,.07.27q0,.57-1.89.57a14.1,14.1,0,0,1-4.83-1,20.42,20.42,0,0,1-4.88-2.57l-2.37-1.76c.52.59,1,1.16,1.53,1.74a17.7,17.7,0,0,0,2.11,2q1.19,1,5.85,4.26l-2.13-.41a13.29,13.29,0,0,1-2.22-.66,13.77,13.77,0,0,1-2-1,29.56,29.56,0,0,1-5.32-4.79,28.13,28.13,0,0,1-4.22-5.56c-.79-1.51-1.32-2.26-1.58-2.26s-.85,1.33-1.67,4-1.7,6-2.64,9.95q-.84,3.69-2.15,13.45Q314.42,168.36,312.8,183.48Zm1.62-29.23a.26.26,0,0,0,.18-.11.5.5,0,0,0,.09-.33v-.31a1.58,1.58,0,0,0-.11-.54c-.08-.2-.14-.29-.2-.29s-.15.23-.18.7S314.27,154.25,314.42,154.25Zm.49-3.07q.57,0,1.71-7.26c-.79,2.35-1.28,3.9-1.45,4.66a9.4,9.4,0,0,0-.35,2.2C314.82,151,314.85,151.18,314.91,151.18Z" transform="translate(-25.31 -6.77)" fill="#a71f24"/><path d="M346.81,205.4a10.56,10.56,0,0,1-2.94-.39q-6.74-2.07-8.31-7.27a34,34,0,0,1-1.58-9.91,67.74,67.74,0,0,1,1.18-11.74A189.59,189.59,0,0,1,345,141.16q9.36-24.84,20.08-35.6,5.37-5.58,11.29-5.58h.71a11.37,11.37,0,0,1,10,5.62,15.69,15.69,0,0,1,2.46,8.75q0,8.09-5.8,17.53a62,62,0,0,1-12.3,14.29,37.31,37.31,0,0,1-5.19,3.6Q363,151.7,360,153.11a12.15,12.15,0,0,1-4.07,1.41c-.73.11-1.64,1.82-2.72,5.11a120.68,120.68,0,0,0-3.12,11.67q-2.64,11.56-2.64,16.48a5,5,0,0,0,.39,2.42,2.2,2.2,0,0,0,1.59.88c.49,0,1.67-.76,3.51-2.29a71.64,71.64,0,0,0,10.68-10.54q5-6.51,8.53-10.37a44,44,0,0,0,3.73-5.06q1.8-2.69,6.55-9.45l2.81-4.08c2.49-3.64,3.84-5.45,4-5.45a8.8,8.8,0,0,1-.92,1.84,10.39,10.39,0,0,0-1.23,2.33l.05.05q.44,0,3.29-4.31,3.6-5.49,4-5.58l.39-.09c.09,0,.13.06.13.18q0,1.1-4.79,9.75a26.87,26.87,0,0,1-1.45,2.42,2,2,0,0,0-.39.88c0,.14,0,.22.13.22s.38-.32.88-.95,1.08-1.47,1.76-2.52,1.31-2,1.93-2.86a10.77,10.77,0,0,1,1.25-1.54,1,1,0,0,1,.51-.26c.17,0,.26.16.26.48a13.19,13.19,0,0,1-1.62,4.7,6.84,6.84,0,0,0-1,2.68c0,.3.09.48.26.55a.49.49,0,0,1,.27.51q0,1.67-3.87,9.53c-.7,1.41-1.23,2.42-1.58,3a8.21,8.21,0,0,0-1,2.06s0,.05,0,.05q.39,0,2.9-3.65,3.43-4.92,4.09-4.92c.09,0,.13.08.13.26q0,1.67-4.62,9.19a153,153,0,0,1-13.2,17.55,106,106,0,0,1-13.65,13.65Q353.89,205.4,346.81,205.4ZM336,180.49c.05,0,.39-1.35,1-4.05.35-1.49.54-2.4.57-2.72,0-.09,0-.13-.09-.13s-.17.14-.33.41a6.65,6.65,0,0,0-.51,1.59c-.17.77-.32,1.62-.44,2.52-.14,1.21-.21,1.95-.21,2.25Zm1.66-8.7c.12,0,.28-.24.49-.71a5.51,5.51,0,0,0,.44-2c0-.29-.05-.45-.13-.48s-.33.23-.53.7a5.55,5.55,0,0,0-.44,2C337.45,171.6,337.51,171.76,337.62,171.79Zm6.6-21.23c.2,0,.63-.95,1.27-2.86a9.43,9.43,0,0,0,.7-2.68c0-.08,0-.13,0-.13-.2,0-.61.73-1.21,2.18a10.2,10.2,0,0,0-.9,2.83Q344,150.56,344.22,150.56Zm12.08,1.89c.06,0,.18-.09.38-.26s.41-.42.68-.73.39-.52.39-.64-.23-.26-.7-.26a1,1,0,0,0-.7.29.87.87,0,0,0-.31.68C356,152.14,356.13,152.45,356.3,152.45Zm.53-2.9a6.59,6.59,0,0,0,2.33-.88,10.57,10.57,0,0,0,2.9-1.89v-.09s0,0-.09,0a7.24,7.24,0,0,0-2.42.88,14.08,14.08,0,0,0-2.06,1.14c-.56.38-.84.65-.84.79S356.71,149.55,356.83,149.55Zm.79-2.11a4.09,4.09,0,0,0,1.58-.66s.05,0,.05,0c.61-.3.92-.66.92-1.1a.75.75,0,0,0-.11-.33A.76.76,0,0,1,360,145c0-.06,0-.08,0-.08a.4.4,0,0,1,.22.08.63.63,0,0,0,.35.09,2,2,0,0,0,1.19-.44,14.88,14.88,0,0,0,3.12-4,4,4,0,0,0,.66-1.63,13.3,13.3,0,0,1,1.58-3.86,13.61,13.61,0,0,0,1.58-3.78,7.31,7.31,0,0,1,.84-1.89c.56-1.06,1.26-2.24,2.11-3.56q3-4.87,3-7.25c0-.77-.25-1.25-.75-1.45h-.18c-.76,0-1.91,1-3.47,3.07a73.68,73.68,0,0,0-5.36,8.9,113.53,113.53,0,0,0-5.32,11.76l-.08.22c-1.38,3.42-2.07,5.42-2.07,6C357.4,147.34,357.47,147.44,357.62,147.44Z" transform="translate(-25.31 -6.77)" fill="#a71f24"/><path d="M399.63,176.49a8.68,8.68,0,0,1-4.7-1.41,9.25,9.25,0,0,1-4.11-5.62,30.29,30.29,0,0,1-.94-7.69q0-8.66,3.86-27.65,4.23-20.87,5.32-20.87h.09a.7.7,0,0,0,.48-.28,2.49,2.49,0,0,0,.44-.73c.12-.29.22-.44.31-.44s.19.54.22,1.6a7.23,7.23,0,0,0,.17,1.83c.09.15.18.22.27.22a1,1,0,0,0,.53-.31,1.06,1.06,0,0,1,.52-.31c.15,0,.22.19.22.57a11.77,11.77,0,0,1-.13,1.48c-.09.66-.18,1.31-.28,2s-.2,1.17-.29,1.52l0,.4c0,.26.07.41.22.44.35,0,.71-1.19,1.09-3.56.3-2.11.6-3.17.93-3.17.11,0,.19.25.22.75a10.17,10.17,0,0,1-.22,1.84,21.07,21.07,0,0,0-.31,3.7c0,3.1.32,5.14,1,6.1.49.65.85,2.1,1,4.35s.57,3.52.92,3.52.31.08.31.24v.38q0,1.14-1.3,8.52a71.4,71.4,0,0,0-1.29,10c0,1,.16,1.49.48,1.49.47,0,1.63-1.28,3.5-3.84s6.2-9,13-19.23q12.21-18.36,15.95-23.16,5.67-6.63,10.37-6.63a3.27,3.27,0,0,1,2.77,1.36,15.53,15.53,0,0,1,1.95,4.53,16.89,16.89,0,0,1,.64,4.17q0,2.73-2.9,18.06-2.11,10.95-3.65,17a44.8,44.8,0,0,0-1.05,6.84,38.92,38.92,0,0,1-1,6.3,16.28,16.28,0,0,0-.61,4.49c0,1.4-.15,2.11-.44,2.11a.21.21,0,0,1-.11-.05.29.29,0,0,0-.16,0c-.2,0-.39.24-.55.72a6.07,6.07,0,0,0-.28,1.58c0,.58-.05.95-.05,1.13,0,.79.05,1.61.13,2.46a11,11,0,0,1,.09,1.31c0,.91-.17,1.37-.52,1.37s-.62-.71-.88-2.11l-1.5-8.35c-.09,4.77-.17,7.26-.26,7.47-.09.38-.21.57-.35.57-.35,0-.72-.59-1.1-1.76a13.68,13.68,0,0,1-.62-2.37c-.23-1.76-.54-2.64-.92-2.64l-.26.05c-.77,0-1.2-2.87-1.32-8.62-.09-3.42-.25-5.14-.49-5.14s-.46,1.23-.79,3.69q-.53,4.88-1.31,4.88c-.36,0-.53-.8-.53-2.42a95.53,95.53,0,0,1,.79-10.24,59.46,59.46,0,0,1,1-6.41,28,28,0,0,0,.79-4.22l0-.18c-.24,0-1,1-2.29,3.12q-4.26,6.69-10.68,15.49t-9.84,12.64q-4.44,4.65-6.81,5.93A11,11,0,0,1,399.63,176.49Zm24.3-27.73c.15,0,.55-.4,1.19-1.19a17.3,17.3,0,0,0,1.25-1.87c.43-.71.75-1.3,1-1.75a2.92,2.92,0,0,0,.33-.9.08.08,0,0,0-.09-.09,15,15,0,0,0-2.24,2.85,8.14,8.14,0,0,0-1.49,2.86C423.85,148.73,423.87,148.76,423.93,148.76Zm4.18-6.42c.14,0,.51-.36,1.1-1.1a2.62,2.62,0,0,0,.57-.79h0a3.94,3.94,0,0,0-.74.53c-.76.62-1.15,1-1.15,1.23S427.93,142.34,428.11,142.34Zm5-6.37q.14,0,.84-.75a2,2,0,0,0,.83-1.27c0-.15-.05-.22-.17-.22-.32,0-.66.38-1,1.14a4,4,0,0,0-.53,1.06S433,136,433.07,136Z" transform="translate(-25.31 -6.77)" fill="#a71f24"/><path d="M615.36,248.08a10.82,10.82,0,0,1-8.09-3.21Q602,239.59,602,224q0-5.1.62-11.34,1.14-10.5,4.19-27.55t5.91-28.65a66.43,66.43,0,0,0,1.76-9,1.84,1.84,0,0,0-.18-.92,4,4,0,0,0-2-1.23q-21.22-8.83-60.07-8.84-12.21,0-26.19.88-6.81.45-12.39.44a76.1,76.1,0,0,1-15.17-1.23q-9.39-2-11.9-7.6a9.74,9.74,0,0,1-1.1-4.53q0-6.5,8.48-14.41,11.51-10.73,40.47-25.71,10.77-5.58,11.6-6.41a1.17,1.17,0,0,1,.6-.4,2.68,2.68,0,0,1,1-.18,11.38,11.38,0,0,0,4.21-1.53q3.66-1.81,14.73-6.68l14.23-6.29c1.85-.88,4.38-1.93,7.61-3.16l7.12-3a9.48,9.48,0,0,1,2.63-.92,14.69,14.69,0,0,0,3.39-1.19A59,59,0,0,1,607,52.39q2.64-.84,8.88-3.26,7.43-2.76,10.46-3.77,6.2-2.07,11.51-4.07a52.54,52.54,0,0,0,6.2-2.57,7.62,7.62,0,0,0,1.4-3q2.5-8.44,2.9-9.49c.38-1.09.66-1.63.84-1.63a.18.18,0,0,1,.15.09c0,.06.08.09.11.09q.52,0,1.87-4.2c.89-2.8,1.46-4.2,1.69-4.2l0,0a10.57,10.57,0,0,1-.3,2c-.24,1.14-.57,2.46-1,3.95q-2.16,7.08-2.16,9.23c0,.38.08.57.22.57s.49-.29.75-.88A8.79,8.79,0,0,0,651,29.8c.29-1.11.53-1.67.7-1.67l.09.22A16.45,16.45,0,0,1,651,32a16.14,16.14,0,0,0-.79,3.91c0,.29,0,.44.09.44q.39,0,2-5.1a49.47,49.47,0,0,1,1.8-5.4l.17-.09c.06,0,.09,0,.09.13a32.48,32.48,0,0,1-1.18,4.88A24.06,24.06,0,0,0,652.14,36,52.93,52.93,0,0,0,660,34q8.13-2.42,16-4.4l20.88-5.49q10.27-2.73,16.17-4.2T724,17.49q10.68-2,28.34-4.7a85.09,85.09,0,0,1,10.46-1.1,8.45,8.45,0,0,1,1.72.14,8.88,8.88,0,0,0,1.23.13c.38,0,.57-.08.57-.22a.49.49,0,0,0-.11-.24.48.48,0,0,1-.11-.29.17.17,0,0,1,0-.13c0-.15.13-.22.31-.22.35,0,.64.26.88.79a.58.58,0,0,0,.61.48,1.87,1.87,0,0,0,.88-.3q1.68-.66,18.94-.66,19.6,0,19.6.92c0,.2-.92.31-2.77.31-1.29,0-3.12-.05-5.49-.14-1.43,0-2.91-.08-4.44-.08a220.86,220.86,0,0,0-29.35,2.28q-7,1-7,1.23,0,.09.57.09,1.85,0,9.23-.79,9.23-.93,16.83-.92c2.61,0,3.91.11,3.91.35,0,.06-.14.14-.44.26a6.71,6.71,0,0,1-1.76.31,1.3,1.3,0,0,1-.59-.09.57.57,0,0,0-.28-.09c-.18,0-.27.1-.27.29s-.65.38-2,.57-2.93.36-4.86.51a105.42,105.42,0,0,0-11.87,1.31,56.56,56.56,0,0,1-5.88.93c-.36,0-.53.16-.53.39a.65.65,0,0,0,.11.27.82.82,0,0,1,.11.44q-.18.39-2.46,1c-1.26.35-4.38,1.06-9.36,2.11q-22,4.62-35.33,8.35A17.94,17.94,0,0,0,710.19,32s0,0,.14,0q1.3,0,13.09-2.5,9.06-1.93,15.51-3a69.38,69.38,0,0,1,8.22-1.06,1.75,1.75,0,0,1,.7.09q0,.18-8.78,2.29Q694.19,38.37,660,49l-12.53,3.87q-3.21,12.35-3.42,18.76a8,8,0,0,1-.53,3.65,1.08,1.08,0,0,0-.18.53c0,.17.11.26.33.26s.33.12.33.35a3.8,3.8,0,0,1-.48,1.41,9.86,9.86,0,0,0-.64,1.91,12.35,12.35,0,0,0-.35,2.2c0,.68-.24,2.06-.59,4.13s-.78,4.31-1.28,6.74-.88,4.4-1.14,5.91-.4,2.37-.4,2.57v.09c.15,0,2.17-.55,6.07-1.67q26.19-7.33,35.77-7.34c.88,0,1.37.11,1.47.31a.69.69,0,0,0,.62.35c.31,0,.53.05.68.05A10.08,10.08,0,0,0,685,93a12.44,12.44,0,0,1,1.85-.18c.64,0,1,.12,1,.35v0c0,.38-.89.86-2.68,1.45-2.26.76-3.39,1.24-3.39,1.45s.15.09.44.09a17.11,17.11,0,0,0,2-.18,8.94,8.94,0,0,1,1.63-.22c.41,0,.61.12.61.35a1.69,1.69,0,0,1-.7,1.23,2.94,2.94,0,0,1-1,.57,3,3,0,0,0-1.82,1.83q-.6,1.42-3.39,2.61c-1.86.79-2.83,1.31-2.92,1.54s.44.13,1.32.13l1.36,0c.64-.06,1.14-.09,1.49-.09.5,0,.75.07.75.22a1,1,0,0,1-.35.57q-.75,1.41-16,4.26-9,1.73-27.81,7.39-1,0-4,12l-3,11.69,1.76,1.37a46.83,46.83,0,0,1,6.22,6,52.9,52.9,0,0,1,5.42,7.15,48.77,48.77,0,0,1,6.46,24.91q0,13.62-6.28,29.75a148.33,148.33,0,0,1-12.33,23.67q-7.36,11.53-12,14.39A9.81,9.81,0,0,1,615.36,248.08ZM501.76,125.34c.44,0,.66,0,.66-.14s-.41-.26-1.23-.52c-1.11-.38-1.67-1-1.67-1.76a4.36,4.36,0,0,1,1.36-2.55,5.28,5.28,0,0,0,.75-.92,7.47,7.47,0,0,0-1.36,1.14c-1.38,1.23-2.07,2-2.07,2.33a1.62,1.62,0,0,0,.57,1.1A4.13,4.13,0,0,0,501.76,125.34Zm90.88.17c.61,0,1-.45,1.14-1.36a14.79,14.79,0,0,1,1.1-2.94q1.23-2.11,7-5.3a125.88,125.88,0,0,1,14.7-6.66l4.59-1.8c1.36-.53,2.27-.87,2.73-1s.9-.76,1.36-1.78A41.85,41.85,0,0,0,627,99.36l2.81-10Q639,56.52,639,56a47.49,47.49,0,0,0-5.47,1.71q-5,1.71-11.53,4.07t-11.52,4.19q-62.4,24-96.63,46-3.53,2.33-6.6,4.79a53.1,53.1,0,0,0-4.72,4.15c-1.1,1.13-1.65,1.88-1.65,2.26l.05.18c.55.35,4.19.53,10.89.53q13,0,27.21-.84,9.13-.57,16.61-.57,7,0,17.05.88,15,1.28,18.5,2A6.45,6.45,0,0,0,592.64,125.51Zm-89.87-7.07c.21,0,.6-.37,1.19-1.1a3.81,3.81,0,0,0,.57-.79l0,0c-.18,0-.69.43-1.54,1.28-.21.2-.31.33-.31.39S502.68,118.44,502.77,118.44Zm2.37,7.6c1.26,0,1.89-.09,1.89-.26s-.63-.33-1.89-.53l-1,0c-.62,0-.93.11-.93.31S503.88,126,505.14,126Zm8.57-.13q1.23,0,1.23-.18c0-.17-.33-.26-1-.26a3.78,3.78,0,0,0-1,.13q-.3.09-.3.18S513,125.88,513.71,125.91Zm3.48,0c.61,0,.92-.06.92-.18s-.31-.26-.92-.26-.93.09-.93.26S516.57,125.91,517.19,125.91Zm4.74,0c1.09,0,1.63,0,1.63-.13s-.47-.26-1.41-.26a6.16,6.16,0,0,0-1.32.13c-.23.06-.35.1-.35.13A4.61,4.61,0,0,0,521.93,125.86Zm47.46-.61c1.09,0,1.63-.09,1.63-.18s-.47-.22-1.41-.22c-1.11,0-1.67.08-1.67.22S568.43,125.22,569.39,125.25Zm6.24.75c.62,0,.93-.08.93-.22s-.19-.31-.58-.31a1.79,1.79,0,0,0-.68.13c-.22.09-.33.16-.33.22S575.19,126,575.63,126Zm5.72.61c.58,0,.87-.07.87-.22s-.19-.28-.57-.31a1.85,1.85,0,0,0-.66.13c-.2.09-.3.17-.3.22S580.91,126.58,581.35,126.61Zm12.39,1.8q.39,0,.39-.09a7.06,7.06,0,0,0-2.28-.79,20.18,20.18,0,0,0-4.13-.7c-.3,0-.46.07-.49.13s.71.4,2.11.75A17.67,17.67,0,0,0,593.74,128.41Zm11.07,2.68c.56,0,.84-.07.84-.22s-.18-.23-.53-.44a2.93,2.93,0,0,0-1.41-.61c-.32,0-.48.2-.48.61,0,.18.14.33.42.46A2.63,2.63,0,0,0,604.81,131.09Zm13.05,1.85c.3,0,.78-1.41,1.45-4.22q1.46-5.58,1.45-5.84a.58.58,0,0,0-.65-.66q-1.11,0-8.31,3.73-4.66,2.46-4.66,3c0,.18.48.37,1.45.57a42.59,42.59,0,0,1,5.41,1.94A22.89,22.89,0,0,0,617.86,132.94Zm-4.79,1.32q.27,0,.27-.66a.59.59,0,0,0-.2-.42.65.65,0,0,0-.46-.2c-.26,0-.4.1-.4.31a.73.73,0,0,0,.16.37,2.36,2.36,0,0,0,.33.42A.47.47,0,0,0,613.07,134.26Zm3.65,95.84c.44,0,1.14-.69,2.11-2.06q1.23-1.72,3.43-5.32,14.5-23.64,14.5-43-.09-13.41-7.12-21.84l-2.24-2.69-.7,1.72q-1.37,3.69-6,27.07-2.9,15.07-4,25.66t-1.07,15.08Q615.67,230.1,616.72,230.1ZM643.18,113a6.41,6.41,0,0,0,1-.13c.79-.15,1.19-.28,1.19-.4s-.35-.26-1.05-.26a1.77,1.77,0,0,0-1.28.39c-.12.12-.17.21-.17.27S642.94,113,643.18,113ZM645,70.36c-.23,0-.35-.15-.35-.44a1.62,1.62,0,0,1,.13-.57,3.8,3.8,0,0,1,.31-.64c.12-.19.21-.28.26-.28s.27.32.27,1S645.43,70.36,645,70.36ZM754.75,16.44q1.32,0,1.32-.18c0-.17-.35-.26-1.05-.26a3.73,3.73,0,0,0-1,.13c-.21.06-.31.12-.31.18S754.05,16.41,754.75,16.44Z" transform="translate(-25.31 -6.77)" fill="#a71f24"/><path d="M684.84,199c-.21,0-.31-1.32-.31-4v-2.85c0-2.64-.15-4-.44-4s-.32.24-.44.73a7.45,7.45,0,0,0-.18,1.78c0,2.66-.32,4-1,4a1,1,0,0,1-.62-.36,1.91,1.91,0,0,1-.46-.63,1.43,1.43,0,0,1-.11-.42.48.48,0,0,1,0-.22,2.28,2.28,0,0,0,.13-.88,12.93,12.93,0,0,0-.27-2.15c-.32-1.44-.63-2.16-.92-2.16l-.18.05c-.29,0-.55-.63-.79-1.89a40.77,40.77,0,0,1-.5-5.93c-.08-2.55-.24-3.86-.51-3.92s-.52,1.06-.79,3.17a11.46,11.46,0,0,1-1,4.26c-.09.18-.16.27-.22.27s-.31-1-.31-3q0-13.94,5.84-44.7,4.94-26.14,10.2-44.16Q701.27,61.4,709.62,44a208,208,0,0,1,11.25-20.66c1.58-2.48,2.55-3.73,2.9-3.73l.27,0a2.18,2.18,0,0,0,1.09-.48c.33-.29.53-.44.62-.44s.09,0,.09.13a2.91,2.91,0,0,1-.22.79,6.49,6.49,0,0,0-.57,1.94q0,.48.39.48a1.25,1.25,0,0,0,.31,0,1.41,1.41,0,0,1,.35-.05c.21,0,.31.09.31.27a11.1,11.1,0,0,1-1.23,2.85,6,6,0,0,0-.79,2.07c0,.09,0,.13,0,.13.32,0,1-1,2.11-3,.79-1.52,1.28-2.28,1.45-2.28s.09.07.09.22a14,14,0,0,1-1.23,3.56,13.52,13.52,0,0,0-1.23,3.86,34.25,34.25,0,0,0-.27,4.84l.09,7.29Q717.88,58.37,716.08,63l-3.47,9.1Q707.87,85,702.26,106.55t-7.1,32.94a20.24,20.24,0,0,1-.63,3.84q-.24.46-1.48,8.9-1.39,9.63-1.71,12.48a19,19,0,0,1-.92,4.83,37.8,37.8,0,0,0-1,6.9,46.19,46.19,0,0,1-1,7.48,15.56,15.56,0,0,0-.61,4.3c0,1.09-.09,1.63-.26,1.63s-.19-.09-.29-.27-.2-.26-.29-.26c-.26,0-.49.82-.7,2.46-.23,1.93-.44,3.42-.61,4.46a15.43,15.43,0,0,1-.47,2.15C685.12,198.79,685,199,684.84,199Zm1.36-76.86c.2,0,.47-.84.79-2.51a7.88,7.88,0,0,0,.13-1.32c0-.43,0-.65-.09-.65s-.22.32-.39,1a9.88,9.88,0,0,0-.53,2.86Q686.11,122.13,686.2,122.13Zm1.14-6.15c.09,0,.27-.18.53-.53a3,3,0,0,0,.61-1.58c0-.15,0-.22-.08-.22s-.27.19-.53.57a3,3,0,0,0-.62,1.58Q687.25,116,687.34,116Zm5-16.35c.41,0,.62-.27.62-.79a11,11,0,0,1,.39-2.38,6,6,0,0,0,.18-1c0-.15,0-.22,0-.22q-.39,0-1.14,2.46a6.35,6.35,0,0,0-.26,1.49C692.09,99.47,692.18,99.63,692.35,99.63Z" transform="translate(-25.31 -6.77)" fill="#a71f24"/><path d="M709.62,205.4a10.66,10.66,0,0,1-2.94-.39q-6.72-2.07-8.31-7.27a34.33,34.33,0,0,1-1.58-9.91A67.84,67.84,0,0,1,698,176.09a188.72,188.72,0,0,1,9.84-34.93q9.36-24.84,20.08-35.6,5.37-5.58,11.3-5.58h.7a11.39,11.39,0,0,1,10,5.62,15.69,15.69,0,0,1,2.46,8.75q0,8.09-5.8,17.53a62.29,62.29,0,0,1-12.31,14.29,37.75,37.75,0,0,1-5.18,3.6q-3.25,1.93-6.22,3.34a12.08,12.08,0,0,1-4.07,1.41c-.73.11-1.64,1.82-2.72,5.11a120.68,120.68,0,0,0-3.12,11.67q-2.64,11.56-2.64,16.48a4.9,4.9,0,0,0,.4,2.42,2.17,2.17,0,0,0,1.58.88c.5,0,1.67-.76,3.51-2.29a71.64,71.64,0,0,0,10.68-10.54q5-6.51,8.53-10.37a42.8,42.8,0,0,0,3.73-5.06q1.81-2.69,6.55-9.45l2.81-4.08c2.49-3.64,3.84-5.45,4-5.45a9.18,9.18,0,0,1-.93,1.84A10.39,10.39,0,0,0,750,148l0,.05q.43,0,3.29-4.31c2.41-3.66,3.72-5.52,4-5.58l.39-.09c.09,0,.14.06.14.18q0,1.1-4.79,9.75c-.77,1.35-1.25,2.16-1.45,2.42a2,2,0,0,0-.4.88c0,.14,0,.22.13.22s.38-.32.88-.95,1.09-1.47,1.76-2.52,1.32-2,1.93-2.86a11.55,11.55,0,0,1,1.25-1.54,1,1,0,0,1,.51-.26c.18,0,.26.16.26.48a13.19,13.19,0,0,1-1.62,4.7,6.84,6.84,0,0,0-1,2.68c0,.3.09.48.26.55a.49.49,0,0,1,.27.51q0,1.67-3.87,9.53c-.7,1.41-1.23,2.42-1.58,3a8.63,8.63,0,0,0-1,2.06s0,.05,0,.05c.27,0,1.23-1.22,2.9-3.65q3.44-4.92,4.09-4.92c.09,0,.13.08.13.26q0,1.67-4.61,9.19a153.15,153.15,0,0,1-13.21,17.55,106.7,106.7,0,0,1-13.64,13.65Q716.7,205.4,709.62,205.4Zm-10.85-24.91a39.9,39.9,0,0,0,1-4.05c.35-1.49.54-2.4.57-2.72,0-.09,0-.13-.09-.13s-.17.14-.33.41a6.31,6.31,0,0,0-.5,1.59,23.88,23.88,0,0,0-.44,2.52c-.15,1.21-.22,1.95-.22,2.25Zm1.67-8.7c.11,0,.28-.24.48-.71a5.51,5.51,0,0,0,.44-2c0-.29,0-.45-.13-.48s-.32.23-.53.7a5.55,5.55,0,0,0-.44,2C700.26,171.6,700.32,171.76,700.44,171.79ZM707,150.56c.2,0,.63-.95,1.27-2.86A9.55,9.55,0,0,0,709,145c0-.08,0-.13,0-.13-.2,0-.61.73-1.21,2.18a10.2,10.2,0,0,0-.9,2.83Q706.85,150.56,707,150.56Zm12.08,1.89c.06,0,.19-.09.38-.26a8.78,8.78,0,0,0,.68-.73c.26-.31.39-.52.39-.64s-.23-.26-.7-.26a1,1,0,0,0-.7.29.87.87,0,0,0-.31.68C718.85,152.14,718.94,152.45,719.11,152.45Zm.53-2.9a6.59,6.59,0,0,0,2.33-.88,10.57,10.57,0,0,0,2.9-1.89v-.09s0,0-.09,0a7.22,7.22,0,0,0-2.41.88,14.79,14.79,0,0,0-2.07,1.14c-.56.38-.83.65-.83.79S719.52,149.55,719.64,149.55Zm.79-2.11a4,4,0,0,0,1.58-.66s0,0,0,0c.61-.3.92-.66.92-1.1a.75.75,0,0,0-.11-.33.76.76,0,0,1-.11-.29c0-.06,0-.08,0-.08a.42.42,0,0,1,.22.08.58.58,0,0,0,.35.09,1.92,1.92,0,0,0,1.18-.44,14.88,14.88,0,0,0,3.12-4,4,4,0,0,0,.66-1.63,13.3,13.3,0,0,1,1.58-3.86,13.8,13.8,0,0,0,1.59-3.78,7.5,7.5,0,0,1,.83-1.89c.56-1.06,1.26-2.24,2.11-3.56q3-4.87,3-7.25c0-.77-.25-1.25-.75-1.45h-.17c-.77,0-1.92,1-3.48,3.07a75,75,0,0,0-5.36,8.9,113.51,113.51,0,0,0-5.31,11.76l-.09.22c-1.38,3.42-2.07,5.42-2.07,6C720.21,147.34,720.29,147.44,720.43,147.44Z" transform="translate(-25.31 -6.77)" fill="#a71f24"/><path d="M796.5,192.92a11.92,11.92,0,0,1-3.87-.66c-3.39-1.52-6-4.76-7.77-9.71a36.28,36.28,0,0,1-.55-5.05q-.28-4.09-.86-21.53l-3.08,5.66a147.89,147.89,0,0,1-10,16.51q-3.92,5.3-7.16,6.65a12.16,12.16,0,0,1-4.84,1.15q-4.78,0-7.51-5.32a11.83,11.83,0,0,1-1.23-5.36v-.79A87.1,87.1,0,0,1,751.81,155q3-12.87,5.93-22.22c1.94-6.22,3.22-9.42,3.87-9.6l.18,0c.32,0,.48-.27.48-.79a1.49,1.49,0,0,1,.22-.75c.17-.41.39-.62.66-.62.11,0,.17.12.17.35a4.56,4.56,0,0,1-.17,1,12.19,12.19,0,0,0-.44,2.73q0,1,.48,1l.53-.08c.26,0,.39.21.39.65a4.61,4.61,0,0,1-.17,1.1,29.15,29.15,0,0,0-.7,4.05c0,.14,0,.22.08.22a9.46,9.46,0,0,0,1.1-2.64,14.09,14.09,0,0,1,1.41-3.43.2.2,0,0,1,.22.22,17.39,17.39,0,0,1-.66,3.08,25.77,25.77,0,0,0-.64,4.28c-.16,1.86-.24,3.76-.24,5.69a4.86,4.86,0,0,0,.26,2.16,3.85,3.85,0,0,1,.31,1.31,26,26,0,0,1,.24,2.88,25.17,25.17,0,0,0,.29,3,4.21,4.21,0,0,0,.5,1.7,2.08,2.08,0,0,1,.29,1.27,12.6,12.6,0,0,1-.35,2.51,16.57,16.57,0,0,0-.44,2.81c0,.44.17.66.53.66a1.94,1.94,0,0,0,1.27-.53.81.81,0,0,0,.31-.53.58.58,0,0,0-.05-.2.61.61,0,0,1,0-.24,1.11,1.11,0,0,1,.57-.88q.79-.53,4.84-8.39A151.87,151.87,0,0,1,782.29,130q3.57-5.3,7.09-7.36a8.65,8.65,0,0,1,4.4-1.72c1.73,0,3.1,1.55,4.13,4.66a20.7,20.7,0,0,1,1.23,5.23c.12,1.52.17,2.72.17,3.6q0,2.73-.3,6.33-1.68,19.86-1.67,27.77c0,5.28.52,7.91,1.49,7.91.41,0,1.14-.82,2.2-2.46a46.76,46.76,0,0,0,4.83-8.87q4.57-12.41,6.84-19.05t3.53-11.63q3.69-13.87,4.35-13.88h.09c.32,0,1-1.78,2.11-5.32.47-1.55.87-3.06,1.19-4.51a9.81,9.81,0,0,1,1.4-3.49c.38-.59.63-.88.75-.88s0,.05,0,.13a4.78,4.78,0,0,1-.22,1.06q-1.46,6.81-2.42,13a29.65,29.65,0,0,0-.35,3.2q.44,0,1.71-5.49,1.32-5.15,1.93-5.14c.09,0,.19.07.31.22a1.59,1.59,0,0,1,.49,1,22.35,22.35,0,0,1-.38,3.87,19.89,19.89,0,0,0-.37,3.29c0,.62.17,1,.5,1.19a1,1,0,0,1,.57.88,8.54,8.54,0,0,1,.07,1c0,.91-.35,3.95-1,9.14-.27,1.76-.53,3.24-.79,4.44a10.87,10.87,0,0,0-.31,1.84c0,.15,0,.22.09.22q.48,0,2.5-6.41c.91-2.93,1.52-4.4,1.85-4.4.14,0,.22.24.22.71a40.08,40.08,0,0,1-.88,6,166.79,166.79,0,0,1-8.88,29.09q-5.76,14.1-11.47,20.7Q802.73,192.92,796.5,192.92Zm-11.12-29c.15,0,.22-.85.22-2.55s-.07-2.55-.22-2.55a25.07,25.07,0,0,0,0,5.1Zm1.15-15.56c.61,0,.92-.38.92-1.14a3.13,3.13,0,0,0-.13-.84c-.21-.53-.37-.79-.49-.79s-.46.29-.87.88a2.08,2.08,0,0,0-.53,1.14.6.6,0,0,0,.39.55A1.67,1.67,0,0,0,786.53,148.32Zm34.85-31.38c-.15,0-.22-.31-.22-.92,0-.44.08-.66.17-.66s.13.11.22.33a1.66,1.66,0,0,1,.13.64C821.65,116.74,821.55,116.94,821.38,116.94Z" transform="translate(-25.31 -6.77)" fill="#a71f24"/><path d="M836.67,205.4a10.68,10.68,0,0,1-2.95-.39q-6.72-2.07-8.3-7.27a34,34,0,0,1-1.58-9.91A67.74,67.74,0,0,1,825,176.09a189.59,189.59,0,0,1,9.85-34.93q9.36-24.84,20.08-35.6,5.35-5.58,11.29-5.58H867a11.37,11.37,0,0,1,10,5.62,15.69,15.69,0,0,1,2.46,8.75q0,8.09-5.8,17.53a62.24,62.24,0,0,1-12.3,14.29,37.31,37.31,0,0,1-5.19,3.6q-3.26,1.93-6.22,3.34a12,12,0,0,1-4.06,1.41c-.73.11-1.64,1.82-2.73,5.11S841,166.82,840,171.3q-2.62,11.56-2.63,16.48a5,5,0,0,0,.39,2.42,2.2,2.2,0,0,0,1.58.88c.5,0,1.67-.76,3.52-2.29a71.64,71.64,0,0,0,10.68-10.54q5-6.51,8.52-10.37a42.58,42.58,0,0,0,3.74-5.06q1.8-2.69,6.55-9.45l2.81-4.08c2.49-3.64,3.84-5.45,4-5.45a8.8,8.8,0,0,1-.92,1.84A10.39,10.39,0,0,0,877,148l0,.05q.45,0,3.3-4.31,3.6-5.49,3.95-5.58l.4-.09c.09,0,.13.06.13.18q0,1.1-4.79,9.75a26.87,26.87,0,0,1-1.45,2.42,2,2,0,0,0-.39.88c0,.14,0,.22.13.22s.38-.32.88-.95,1.08-1.47,1.75-2.52,1.32-2,1.94-2.86a10.08,10.08,0,0,1,1.25-1.54,1,1,0,0,1,.51-.26c.17,0,.26.16.26.48a13.07,13.07,0,0,1-1.63,4.7,7,7,0,0,0-1,2.68c0,.3.09.48.26.55s.26.24.26.51q0,1.67-3.86,9.53c-.71,1.41-1.23,2.42-1.58,3a8.45,8.45,0,0,0-1,2.06,0,0,0,0,0,.05.05q.39,0,2.9-3.65c2.28-3.28,3.65-4.92,4.09-4.92.08,0,.13.08.13.26q0,1.67-4.62,9.19a153,153,0,0,1-13.2,17.55,106,106,0,0,1-13.65,13.65Q843.75,205.4,836.67,205.4Zm-10.86-24.91a36.69,36.69,0,0,0,1-4.05c.36-1.49.55-2.4.58-2.72,0-.09,0-.13-.09-.13s-.17.14-.33.41a6.65,6.65,0,0,0-.51,1.59c-.17.77-.32,1.62-.44,2.52-.14,1.21-.22,1.95-.22,2.25Zm1.67-8.7c.12,0,.28-.24.49-.71a5.51,5.51,0,0,0,.44-2c0-.29,0-.45-.14-.48s-.32.23-.52.7a5.35,5.35,0,0,0-.44,2C827.31,171.6,827.37,171.76,827.48,171.79Zm6.6-21.23c.2,0,.63-.95,1.27-2.86a9.43,9.43,0,0,0,.7-2.68c0-.08,0-.13,0-.13-.21,0-.61.73-1.21,2.18a10.2,10.2,0,0,0-.9,2.83Q833.9,150.56,834.08,150.56Zm12.08,1.89c.06,0,.18-.09.37-.26a8.78,8.78,0,0,0,.68-.73c.27-.31.4-.52.4-.64s-.23-.26-.7-.26a1,1,0,0,0-.71.29.9.9,0,0,0-.3.68C845.9,152.14,846,152.45,846.16,152.45Zm.53-2.9a6.66,6.66,0,0,0,2.33-.88,10.57,10.57,0,0,0,2.9-1.89v-.09s0,0-.09,0a7.24,7.24,0,0,0-2.42.88,14.08,14.08,0,0,0-2.06,1.14c-.56.38-.84.65-.84.79S846.57,149.55,846.69,149.55Zm.79-2.11a4.09,4.09,0,0,0,1.58-.66s0,0,0,0c.62-.3.93-.66.93-1.1a.75.75,0,0,0-.11-.33.62.62,0,0,1-.11-.29c0-.06,0-.08,0-.08a.4.4,0,0,1,.22.08.63.63,0,0,0,.35.09,2,2,0,0,0,1.19-.44,14.88,14.88,0,0,0,3.12-4,4,4,0,0,0,.66-1.63,13.3,13.3,0,0,1,1.58-3.86,13.61,13.61,0,0,0,1.58-3.78,7.31,7.31,0,0,1,.84-1.89c.55-1.06,1.26-2.24,2.11-3.56q3-4.87,3-7.25c0-.77-.25-1.25-.75-1.45h-.18q-1.14,0-3.47,3.07a73.68,73.68,0,0,0-5.36,8.9,113.53,113.53,0,0,0-5.32,11.76l-.09.22c-1.37,3.42-2.06,5.42-2.06,6C847.26,147.34,847.33,147.44,847.48,147.44Z" transform="translate(-25.31 -6.77)" fill="#a71f24"/><path d="M888.61,199c-.2,0-.31-1.32-.31-4v-2.85c0-2.64-.14-4-.44-4s-.32.24-.44.73a8.07,8.07,0,0,0-.17,1.78c0,2.66-.32,4-1,4a1,1,0,0,1-.61-.36,1.78,1.78,0,0,1-.46-.63,1.17,1.17,0,0,1-.11-.42.48.48,0,0,1,0-.22,2.1,2.1,0,0,0,.13-.88,13.8,13.8,0,0,0-.26-2.15q-.48-2.16-.93-2.16l-.17.05c-.29,0-.56-.63-.79-1.89a40.52,40.52,0,0,1-.51-5.93c-.07-2.55-.24-3.86-.5-3.92s-.53,1.06-.79,3.17a11.62,11.62,0,0,1-1.06,4.26c-.09.18-.16.27-.22.27s-.31-1-.31-3q0-13.94,5.85-44.7,4.92-26.14,10.19-44.16Q905.06,61.4,913.4,44a203.94,203.94,0,0,1,11.25-20.66c1.58-2.48,2.55-3.73,2.9-3.73l.26,0a2.24,2.24,0,0,0,1.1-.48c.32-.29.53-.44.61-.44s.09,0,.09.13a2.57,2.57,0,0,1-.22.79,6.49,6.49,0,0,0-.57,1.94c0,.32.13.48.4.48a1.18,1.18,0,0,0,.3,0,1.49,1.49,0,0,1,.36-.05q.3,0,.3.27A11.1,11.1,0,0,1,929,25.05a6.26,6.26,0,0,0-.79,2.07c0,.09,0,.13.05.13.32,0,1-1,2.11-3,.79-1.52,1.27-2.28,1.45-2.28s.08.07.08.22a14,14,0,0,1-1.23,3.56,14.18,14.18,0,0,0-1.23,3.86,36.1,36.1,0,0,0-.26,4.84l.09,7.29Q921.66,58.37,919.86,63l-3.48,9.1Q911.64,85,906,106.55t-7.1,32.94a20.73,20.73,0,0,1-.64,3.84q-.24.46-1.47,8.9-1.41,9.63-1.71,12.48a19.32,19.32,0,0,1-.93,4.83,38,38,0,0,0-1,6.9,48.67,48.67,0,0,1-1,7.48,15.58,15.58,0,0,0-.62,4.3c0,1.09-.08,1.63-.26,1.63s-.18-.09-.29-.27-.19-.26-.28-.26c-.27,0-.5.82-.7,2.46-.24,1.93-.44,3.42-.62,4.46a17.62,17.62,0,0,1-.46,2.15Q888.84,199,888.61,199ZM890,122.13c.21,0,.47-.84.79-2.51a8,8,0,0,0,.14-1.32c0-.43,0-.65-.09-.65s-.22.32-.4,1a9.83,9.83,0,0,0-.52,2.86C889.89,121.91,889.92,122.13,890,122.13Zm1.15-6.15c.08,0,.26-.18.52-.53a3,3,0,0,0,.62-1.58c0-.15,0-.22-.09-.22s-.26.19-.53.57a3,3,0,0,0-.61,1.58Q891,116,891.12,116Zm5-16.35c.41,0,.61-.27.61-.79a10.58,10.58,0,0,1,.4-2.38,6.71,6.71,0,0,0,.17-1c0-.15,0-.22,0-.22q-.4,0-1.14,2.46a6,6,0,0,0-.27,1.49C895.86,99.47,896,99.63,896.13,99.63Z" transform="translate(-25.31 -6.77)" fill="#a71f24"/><path d="M916.56,199c-.2,0-.31-1.32-.31-4v-2.85c0-2.64-.14-4-.44-4s-.32.24-.44.73a8.07,8.07,0,0,0-.17,1.78c0,2.66-.32,4-1,4a1,1,0,0,1-.61-.36,2,2,0,0,1-.47-.63,1.43,1.43,0,0,1-.11-.42.48.48,0,0,1,.05-.22,2.1,2.1,0,0,0,.13-.88,13.8,13.8,0,0,0-.26-2.15c-.33-1.44-.63-2.16-.93-2.16l-.17.05c-.29,0-.56-.63-.79-1.89a39.16,39.16,0,0,1-.51-5.93c-.07-2.55-.24-3.86-.5-3.92s-.53,1.06-.79,3.17a11.62,11.62,0,0,1-1.06,4.26c-.09.18-.16.27-.22.27s-.31-1-.31-3q0-13.94,5.85-44.7,4.92-26.14,10.19-44.16Q933,61.4,941.35,44A203.94,203.94,0,0,1,952.6,23.29c1.58-2.48,2.54-3.73,2.9-3.73l.26,0a2.24,2.24,0,0,0,1.1-.48c.32-.29.53-.44.61-.44s.09,0,.09.13a2.57,2.57,0,0,1-.22.79,6.49,6.49,0,0,0-.57,1.94c0,.32.13.48.4.48a1.18,1.18,0,0,0,.3,0,1.49,1.49,0,0,1,.36-.05q.3,0,.3.27a11.1,11.1,0,0,1-1.23,2.85,6.26,6.26,0,0,0-.79,2.07c0,.09,0,.13,0,.13.32,0,1-1,2.1-3,.8-1.52,1.28-2.28,1.45-2.28s.09.07.09.22a14,14,0,0,1-1.23,3.56,14.18,14.18,0,0,0-1.23,3.86,36.1,36.1,0,0,0-.26,4.84l.09,7.29Q949.61,58.37,947.81,63l-3.48,9.1Q939.59,85,934,106.55t-7.09,32.94a20.73,20.73,0,0,1-.64,3.84q-.24.46-1.47,8.9-1.41,9.63-1.72,12.48a19,19,0,0,1-.92,4.83,38.73,38.73,0,0,0-1,6.9,47.78,47.78,0,0,1-1,7.48,15.58,15.58,0,0,0-.62,4.3c0,1.09-.09,1.63-.26,1.63s-.18-.09-.29-.27-.19-.26-.28-.26c-.27,0-.5.82-.71,2.46-.23,1.93-.43,3.42-.61,4.46a17.62,17.62,0,0,1-.46,2.15Q916.79,199,916.56,199Zm1.36-76.86c.21,0,.47-.84.79-2.51a8,8,0,0,0,.14-1.32c0-.43,0-.65-.09-.65s-.22.32-.4,1a9.88,9.88,0,0,0-.53,2.86Q917.83,122.13,917.92,122.13Zm1.15-6.15c.08,0,.26-.18.52-.53a3,3,0,0,0,.62-1.58c0-.15,0-.22-.09-.22s-.26.19-.53.57a3,3,0,0,0-.61,1.58Q919,116,919.07,116Zm5-16.35c.41,0,.61-.27.61-.79a10.58,10.58,0,0,1,.4-2.38,6.71,6.71,0,0,0,.17-1c0-.15,0-.22,0-.22q-.4,0-1.14,2.46a6,6,0,0,0-.27,1.49C923.81,99.47,923.9,99.63,924.08,99.63Z" transform="translate(-25.31 -6.77)" fill="#a71f24"/><path d="M941.35,205.4a10.68,10.68,0,0,1-3-.39q-6.72-2.07-8.3-7.27a34,34,0,0,1-1.59-9.91,67.84,67.84,0,0,1,1.19-11.74,190.29,190.29,0,0,1,9.84-34.93q9.36-24.84,20.09-35.6Q965,100,970.92,100h.7a11.39,11.39,0,0,1,10,5.62,15.69,15.69,0,0,1,2.46,8.75q0,8.09-5.8,17.53A62.48,62.48,0,0,1,966,146.17a37.31,37.31,0,0,1-5.19,3.6q-3.25,1.93-6.22,3.34a12.12,12.12,0,0,1-4.06,1.41c-.74.11-1.64,1.82-2.73,5.11s-2.12,7.19-3.12,11.67Q942,182.86,942,187.78a5,5,0,0,0,.4,2.42,2.2,2.2,0,0,0,1.58.88c.5,0,1.67-.76,3.52-2.29a71.64,71.64,0,0,0,10.68-10.54q5-6.51,8.52-10.37a42.58,42.58,0,0,0,3.74-5.06q1.8-2.69,6.55-9.45l2.81-4.08c2.49-3.64,3.84-5.45,4-5.45a9.44,9.44,0,0,1-.92,1.84,10.39,10.39,0,0,0-1.23,2.33l0,.05q.43,0,3.3-4.31,3.6-5.49,4-5.58l.4-.09c.09,0,.13.06.13.18q0,1.1-4.79,9.75c-.76,1.35-1.25,2.16-1.45,2.42a2.1,2.1,0,0,0-.4.88c0,.14,0,.22.14.22s.38-.32.87-.95,1.09-1.47,1.76-2.52,1.32-2,1.94-2.86a10.08,10.08,0,0,1,1.25-1.54,1,1,0,0,1,.5-.26q.27,0,.27.48a13.07,13.07,0,0,1-1.63,4.7,7,7,0,0,0-1,2.68c0,.3.09.48.27.55a.5.5,0,0,1,.26.51q0,1.67-3.86,9.53c-.71,1.41-1.24,2.42-1.59,3a8.63,8.63,0,0,0-1,2.06,0,0,0,0,0,0,.05q.39,0,2.9-3.65,3.42-4.92,4.08-4.92c.09,0,.14.08.14.26q0,1.67-4.62,9.19a153,153,0,0,1-13.2,17.55,106.68,106.68,0,0,1-13.65,13.65Q948.42,205.4,941.35,205.4Zm-10.86-24.91a36.69,36.69,0,0,0,1-4.05c.35-1.49.54-2.4.57-2.72,0-.09,0-.13-.08-.13s-.17.14-.33.41a6.65,6.65,0,0,0-.51,1.59c-.18.77-.32,1.62-.44,2.52-.15,1.21-.22,1.95-.22,2.25Zm1.67-8.7c.12,0,.28-.24.48-.71a5.31,5.31,0,0,0,.44-2c0-.29,0-.45-.13-.48s-.32.23-.53.7a5.52,5.52,0,0,0-.43,2C932,171.6,932,171.76,932.16,171.79Zm6.59-21.23c.21,0,.63-.95,1.28-2.86a9.43,9.43,0,0,0,.7-2.68c0-.08,0-.13,0-.13-.21,0-.61.73-1.21,2.18a10.2,10.2,0,0,0-.9,2.83C938.58,150.34,938.64,150.56,938.75,150.56Zm12.09,1.89c.06,0,.18-.09.37-.26a8.78,8.78,0,0,0,.68-.73c.27-.31.4-.52.4-.64s-.24-.26-.71-.26a1,1,0,0,0-.7.29.91.91,0,0,0-.31.68C950.57,152.14,950.66,152.45,950.84,152.45Zm.53-2.9a6.56,6.56,0,0,0,2.32-.88,10.4,10.4,0,0,0,2.9-1.89v-.09s0,0-.08,0a7.24,7.24,0,0,0-2.42.88,14.79,14.79,0,0,0-2.07,1.14c-.55.38-.83.65-.83.79S951.25,149.55,951.37,149.55Zm.79-2.11a4.09,4.09,0,0,0,1.58-.66s0,0,0,0c.62-.3.93-.66.93-1.1a.75.75,0,0,0-.11-.33.62.62,0,0,1-.11-.29c0-.06,0-.08,0-.08a.4.4,0,0,1,.22.08.61.61,0,0,0,.35.09,2,2,0,0,0,1.19-.44,15.28,15.28,0,0,0,3.12-4,4,4,0,0,0,.66-1.63,13,13,0,0,1,1.58-3.86,14,14,0,0,0,1.58-3.78,7.31,7.31,0,0,1,.84-1.89c.55-1.06,1.26-2.24,2.1-3.56,2-3.25,3-5.67,3-7.25,0-.77-.25-1.25-.74-1.45h-.18q-1.14,0-3.47,3.07a73.68,73.68,0,0,0-5.36,8.9,111.46,111.46,0,0,0-5.32,11.76l-.09.22c-1.38,3.42-2.06,5.42-2.06,6C951.94,147.34,952,147.44,952.16,147.44Z" transform="translate(-25.31 -6.77)" fill="#a71f24"/><path d="M994.17,176.49a8.68,8.68,0,0,1-4.7-1.41,9.25,9.25,0,0,1-4.11-5.62,30.28,30.28,0,0,1-1-7.69q0-8.66,3.87-27.65,4.22-20.87,5.32-20.87h.08a.72.72,0,0,0,.49-.28,2.72,2.72,0,0,0,.44-.73c.11-.29.22-.44.31-.44s.19.54.21,1.6a6.53,6.53,0,0,0,.18,1.83c.09.15.18.22.26.22a1,1,0,0,0,.53-.31c.24-.2.41-.31.53-.31s.22.19.22.57a14.07,14.07,0,0,1-.13,1.48c-.09.66-.19,1.31-.29,2s-.2,1.17-.28,1.52l0,.4c0,.26.07.41.22.44.35,0,.72-1.19,1.1-3.56.29-2.11.6-3.17.92-3.17.12,0,.19.25.22.75a9.34,9.34,0,0,1-.22,1.84,22.09,22.09,0,0,0-.3,3.7c0,3.1.32,5.14,1,6.1.5.65.85,2.1,1.06,4.35s.57,3.52.92,3.52c.2,0,.31.08.31.24v.38c0,.76-.44,3.6-1.3,8.52a71.92,71.92,0,0,0-1.3,10c0,1,.17,1.49.49,1.49q.71,0,3.49-3.84t13-19.23q12.22-18.36,16-23.16,5.67-6.63,10.37-6.63a3.24,3.24,0,0,1,2.77,1.36,15.83,15.83,0,0,1,2,4.53,17.38,17.38,0,0,1,.64,4.17q0,2.73-2.9,18.06-2.12,10.95-3.65,17a45.84,45.84,0,0,0-1.06,6.84,38.09,38.09,0,0,1-1,6.3,16.28,16.28,0,0,0-.62,4.49c0,1.4-.15,2.11-.44,2.11a.25.25,0,0,1-.11-.05.24.24,0,0,0-.15,0c-.21,0-.39.24-.55.72a6.07,6.07,0,0,0-.29,1.58c0,.58,0,.95,0,1.13a23.34,23.34,0,0,0,.13,2.46,11,11,0,0,1,.09,1.31c0,.91-.18,1.37-.53,1.37s-.61-.71-.88-2.11l-1.49-8.35q-.14,7.15-.27,7.47c-.08.38-.2.57-.35.57-.35,0-.71-.59-1.1-1.76a14.65,14.65,0,0,1-.61-2.37c-.23-1.76-.54-2.64-.92-2.64l-.27.05q-1.14,0-1.32-8.62c-.08-3.42-.24-5.14-.48-5.14s-.47,1.23-.79,3.69q-.52,4.88-1.32,4.88c-.35,0-.53-.8-.53-2.42a96.13,96.13,0,0,1,.8-10.24,59.46,59.46,0,0,1,1-6.41,29.52,29.52,0,0,0,.79-4.22l0-.18q-.35,0-2.28,3.12-4.26,6.69-10.68,15.49t-9.84,12.64q-4.44,4.65-6.82,5.93A10.92,10.92,0,0,1,994.17,176.49Zm24.3-27.73c.15,0,.54-.4,1.19-1.19a18.91,18.91,0,0,0,1.25-1.87c.42-.71.75-1.3,1-1.75a2.92,2.92,0,0,0,.33-.9.08.08,0,0,0-.09-.09,14.53,14.53,0,0,0-2.24,2.85,8.24,8.24,0,0,0-1.5,2.86A.08.08,0,0,0,1018.47,148.76Zm4.17-6.42c.15,0,.52-.36,1.1-1.1a2.62,2.62,0,0,0,.57-.79h0a3.5,3.5,0,0,0-.75.53q-1.14.93-1.14,1.23C1022.38,142.3,1022.47,142.34,1022.64,142.34Zm5-6.37q.14,0,.84-.75a2,2,0,0,0,.83-1.27c0-.15-.06-.22-.18-.22-.32,0-.65.38-1,1.14a3.78,3.78,0,0,0-.52,1.06S1027.58,136,1027.61,136Z" transform="translate(-25.31 -6.77)" fill="#a71f24"/></svg>